G04*
G04 #@! TF.GenerationSoftware,Altium Limited,Altium Designer,18.0.7 (293)*
G04*
G04 Layer_Color=8865052*
%FSLAX25Y25*%
%MOIN*%
G70*
G01*
G75*
%ADD70C,0.01000*%
%ADD73C,0.01500*%
%ADD88C,0.00100*%
%ADD89C,0.00600*%
D70*
X270866Y157520D02*
X270866Y39D01*
X0D02*
X270866D01*
X0Y157520D02*
X270866D01*
X0Y39D02*
Y157520D01*
Y169882D02*
X6000Y171882D01*
X0Y169882D02*
X6000Y167882D01*
X264866D02*
X270866Y169882D01*
X264866Y171882D02*
X270866Y169882D01*
X0D02*
X118737D01*
X148929D02*
X270866D01*
X0Y159020D02*
Y170882D01*
X270866Y159020D02*
Y170882D01*
X-27953Y157520D02*
X-25953Y151520D01*
X-29953D02*
X-27953Y157520D01*
X-29953Y6039D02*
X-27953Y39D01*
X-25953Y6039D01*
X-27953Y92275D02*
Y157520D01*
Y39D02*
Y62084D01*
X-28953Y157520D02*
X-1000D01*
X-28953Y39D02*
X-1500D01*
X288073Y353885D02*
Y350736D01*
X290172D01*
X291746Y352835D02*
X292796D01*
X293320Y352310D01*
Y350736D01*
X291746D01*
X291221Y351261D01*
X291746Y351785D01*
X293320D01*
X294370Y352835D02*
Y351261D01*
X294895Y350736D01*
X296469D01*
Y350211D01*
X295944Y349686D01*
X295420D01*
X296469Y350736D02*
Y352835D01*
X299093Y350736D02*
X298043D01*
X297519Y351261D01*
Y352310D01*
X298043Y352835D01*
X299093D01*
X299618Y352310D01*
Y351785D01*
X297519D01*
X300667Y352835D02*
Y350736D01*
Y351785D01*
X301192Y352310D01*
X301717Y352835D01*
X302242D01*
X288073Y309790D02*
X290172D01*
Y309265D01*
X288073Y307166D01*
Y306641D01*
X290172Y316089D02*
X289122Y315564D01*
X288073Y314515D01*
Y313465D01*
X288598Y312941D01*
X289647D01*
X290172Y313465D01*
Y313990D01*
X289647Y314515D01*
X288073D01*
X290172Y322389D02*
X288073D01*
Y320814D01*
X289122Y321339D01*
X289647D01*
X290172Y320814D01*
Y319765D01*
X289647Y319240D01*
X288598D01*
X288073Y319765D01*
X289647Y325539D02*
Y328688D01*
X288073Y327113D01*
X290172D01*
X288073Y334462D02*
X288598Y334987D01*
X289647D01*
X290172Y334462D01*
Y333937D01*
X289647Y333413D01*
X289122D01*
X289647D01*
X290172Y332888D01*
Y332363D01*
X289647Y331838D01*
X288598D01*
X288073Y332363D01*
X290172Y338138D02*
X288073D01*
X290172Y340236D01*
Y340761D01*
X289647Y341286D01*
X288598D01*
X288073Y340761D01*
Y344437D02*
X289122D01*
X288598D01*
Y347585D01*
X288073Y347060D01*
X310541Y350736D02*
Y353885D01*
X312640Y350736D01*
Y353885D01*
X314214Y352835D02*
X315264D01*
X315788Y352310D01*
Y350736D01*
X314214D01*
X313689Y351261D01*
X314214Y351785D01*
X315788D01*
X316838Y350736D02*
Y352835D01*
X317363D01*
X317887Y352310D01*
Y350736D01*
Y352310D01*
X318412Y352835D01*
X318937Y352310D01*
Y350736D01*
X321561D02*
X320511D01*
X319987Y351261D01*
Y352310D01*
X320511Y352835D01*
X321561D01*
X322086Y352310D01*
Y351785D01*
X319987D01*
X310541Y309790D02*
Y306641D01*
X312115D01*
X312640Y307166D01*
Y307691D01*
X312115Y308216D01*
X310541D01*
X312115D01*
X312640Y308740D01*
Y309265D01*
X312115Y309790D01*
X310541D01*
X314214Y306641D02*
X315264D01*
X315788Y307166D01*
Y308216D01*
X315264Y308740D01*
X314214D01*
X313689Y308216D01*
Y307166D01*
X314214Y306641D01*
X317363Y309265D02*
Y308740D01*
X316838D01*
X317887D01*
X317363D01*
Y307166D01*
X317887Y306641D01*
X319987Y309265D02*
Y308740D01*
X319462D01*
X320511D01*
X319987D01*
Y307166D01*
X320511Y306641D01*
X322610D02*
X323660D01*
X324185Y307166D01*
Y308216D01*
X323660Y308740D01*
X322610D01*
X322086Y308216D01*
Y307166D01*
X322610Y306641D01*
X325234D02*
Y308740D01*
X325759D01*
X326284Y308216D01*
Y306641D01*
Y308216D01*
X326809Y308740D01*
X327333Y308216D01*
Y306641D01*
X333106Y309790D02*
X332056D01*
X331531Y309265D01*
Y307166D01*
X332056Y306641D01*
X333106D01*
X333630Y307166D01*
Y309265D01*
X333106Y309790D01*
X334680Y308740D02*
X335730Y306641D01*
X336779Y308740D01*
X339403Y306641D02*
X338353D01*
X337829Y307166D01*
Y308216D01*
X338353Y308740D01*
X339403D01*
X339928Y308216D01*
Y307691D01*
X337829D01*
X340977Y308740D02*
Y306641D01*
Y307691D01*
X341502Y308216D01*
X342027Y308740D01*
X342551D01*
X344126Y306641D02*
X345175D01*
X344651D01*
Y309790D01*
X344126D01*
X347274Y308740D02*
X348324D01*
X348849Y308216D01*
Y306641D01*
X347274D01*
X346750Y307166D01*
X347274Y307691D01*
X348849D01*
X349898Y308740D02*
Y307166D01*
X350423Y306641D01*
X351997D01*
Y306117D01*
X351472Y305592D01*
X350948D01*
X351997Y306641D02*
Y308740D01*
X310541Y316089D02*
Y312941D01*
X312115D01*
X312640Y313465D01*
Y313990D01*
X312115Y314515D01*
X310541D01*
X312115D01*
X312640Y315040D01*
Y315564D01*
X312115Y316089D01*
X310541D01*
X314214Y312941D02*
X315264D01*
X315788Y313465D01*
Y314515D01*
X315264Y315040D01*
X314214D01*
X313689Y314515D01*
Y313465D01*
X314214Y312941D01*
X317363Y315564D02*
Y315040D01*
X316838D01*
X317887D01*
X317363D01*
Y313465D01*
X317887Y312941D01*
X319987Y315564D02*
Y315040D01*
X319462D01*
X320511D01*
X319987D01*
Y313465D01*
X320511Y312941D01*
X322610D02*
X323660D01*
X324185Y313465D01*
Y314515D01*
X323660Y315040D01*
X322610D01*
X322086Y314515D01*
Y313465D01*
X322610Y312941D01*
X325234D02*
Y315040D01*
X325759D01*
X326284Y314515D01*
Y312941D01*
Y314515D01*
X326809Y315040D01*
X327333Y314515D01*
Y312941D01*
X333630Y315564D02*
X333106Y316089D01*
X332056D01*
X331531Y315564D01*
Y315040D01*
X332056Y314515D01*
X333106D01*
X333630Y313990D01*
Y313465D01*
X333106Y312941D01*
X332056D01*
X331531Y313465D01*
X335205Y312941D02*
X336254D01*
X336779Y313465D01*
Y314515D01*
X336254Y315040D01*
X335205D01*
X334680Y314515D01*
Y313465D01*
X335205Y312941D01*
X337829D02*
X338878D01*
X338353D01*
Y316089D01*
X337829D01*
X342551D02*
Y312941D01*
X340977D01*
X340452Y313465D01*
Y314515D01*
X340977Y315040D01*
X342551D01*
X345175Y312941D02*
X344126D01*
X343601Y313465D01*
Y314515D01*
X344126Y315040D01*
X345175D01*
X345700Y314515D01*
Y313990D01*
X343601D01*
X346750Y315040D02*
Y312941D01*
Y313990D01*
X347274Y314515D01*
X347799Y315040D01*
X348324D01*
X310541Y322389D02*
Y319240D01*
X312115D01*
X312640Y319765D01*
Y320289D01*
X312115Y320814D01*
X310541D01*
X312115D01*
X312640Y321339D01*
Y321864D01*
X312115Y322389D01*
X310541D01*
X314214Y319240D02*
X315264D01*
X315788Y319765D01*
Y320814D01*
X315264Y321339D01*
X314214D01*
X313689Y320814D01*
Y319765D01*
X314214Y319240D01*
X317363Y321864D02*
Y321339D01*
X316838D01*
X317887D01*
X317363D01*
Y319765D01*
X317887Y319240D01*
X319987Y321864D02*
Y321339D01*
X319462D01*
X320511D01*
X319987D01*
Y319765D01*
X320511Y319240D01*
X322610D02*
X323660D01*
X324185Y319765D01*
Y320814D01*
X323660Y321339D01*
X322610D01*
X322086Y320814D01*
Y319765D01*
X322610Y319240D01*
X325234D02*
Y321339D01*
X325759D01*
X326284Y320814D01*
Y319240D01*
Y320814D01*
X326809Y321339D01*
X327333Y320814D01*
Y319240D01*
X331531Y322389D02*
Y319240D01*
X333630D01*
X335205Y321339D02*
X336254D01*
X336779Y320814D01*
Y319240D01*
X335205D01*
X334680Y319765D01*
X335205Y320289D01*
X336779D01*
X337829Y321339D02*
Y319765D01*
X338353Y319240D01*
X339928D01*
Y318715D01*
X339403Y318190D01*
X338878D01*
X339928Y319240D02*
Y321339D01*
X342551Y319240D02*
X341502D01*
X340977Y319765D01*
Y320814D01*
X341502Y321339D01*
X342551D01*
X343076Y320814D01*
Y320289D01*
X340977D01*
X344126Y321339D02*
Y319240D01*
Y320289D01*
X344651Y320814D01*
X345175Y321339D01*
X345700D01*
X310541Y328688D02*
Y325539D01*
X312115D01*
X312640Y326064D01*
Y328163D01*
X312115Y328688D01*
X310541D01*
X313689Y325539D02*
X314739D01*
X314214D01*
Y327638D01*
X313689D01*
X317887Y325539D02*
X316838D01*
X316313Y326064D01*
Y327113D01*
X316838Y327638D01*
X317887D01*
X318412Y327113D01*
Y326589D01*
X316313D01*
X319462Y325539D02*
X320511D01*
X319987D01*
Y328688D01*
X319462D01*
X323660Y325539D02*
X322610D01*
X322086Y326064D01*
Y327113D01*
X322610Y327638D01*
X323660D01*
X324185Y327113D01*
Y326589D01*
X322086D01*
X327333Y327638D02*
X325759D01*
X325234Y327113D01*
Y326064D01*
X325759Y325539D01*
X327333D01*
X328908Y328163D02*
Y327638D01*
X328383D01*
X329432D01*
X328908D01*
Y326064D01*
X329432Y325539D01*
X331007Y327638D02*
Y325539D01*
Y326589D01*
X331531Y327113D01*
X332056Y327638D01*
X332581D01*
X334155Y325539D02*
X335205D01*
X334680D01*
Y327638D01*
X334155D01*
X338878D02*
X337304D01*
X336779Y327113D01*
Y326064D01*
X337304Y325539D01*
X338878D01*
X343076D02*
X344126D01*
X343601D01*
Y328688D01*
X343076Y328163D01*
X310541Y334987D02*
X312640D01*
X311590D01*
Y331838D01*
X314214D02*
X315264D01*
X315788Y332363D01*
Y333413D01*
X315264Y333937D01*
X314214D01*
X313689Y333413D01*
Y332363D01*
X314214Y331838D01*
X316838Y330789D02*
Y333937D01*
X318412D01*
X318937Y333413D01*
Y332363D01*
X318412Y331838D01*
X316838D01*
X323135Y334987D02*
Y331838D01*
X325234D01*
X326809Y333937D02*
X327858D01*
X328383Y333413D01*
Y331838D01*
X326809D01*
X326284Y332363D01*
X326809Y332888D01*
X328383D01*
X329432Y333937D02*
Y332363D01*
X329957Y331838D01*
X331531D01*
Y331313D01*
X331007Y330789D01*
X330482D01*
X331531Y331838D02*
Y333937D01*
X334155Y331838D02*
X333106D01*
X332581Y332363D01*
Y333413D01*
X333106Y333937D01*
X334155D01*
X334680Y333413D01*
Y332888D01*
X332581D01*
X335730Y333937D02*
Y331838D01*
Y332888D01*
X336254Y333413D01*
X336779Y333937D01*
X337304D01*
X310541Y341286D02*
X312640D01*
X311590D01*
Y338138D01*
X314214D02*
X315264D01*
X315788Y338662D01*
Y339712D01*
X315264Y340236D01*
X314214D01*
X313689Y339712D01*
Y338662D01*
X314214Y338138D01*
X316838Y337088D02*
Y340236D01*
X318412D01*
X318937Y339712D01*
Y338662D01*
X318412Y338138D01*
X316838D01*
X325234Y340761D02*
X324709Y341286D01*
X323660D01*
X323135Y340761D01*
Y340236D01*
X323660Y339712D01*
X324709D01*
X325234Y339187D01*
Y338662D01*
X324709Y338138D01*
X323660D01*
X323135Y338662D01*
X326809Y338138D02*
X327858D01*
X328383Y338662D01*
Y339712D01*
X327858Y340236D01*
X326809D01*
X326284Y339712D01*
Y338662D01*
X326809Y338138D01*
X329432D02*
X330482D01*
X329957D01*
Y341286D01*
X329432D01*
X334155D02*
Y338138D01*
X332581D01*
X332056Y338662D01*
Y339712D01*
X332581Y340236D01*
X334155D01*
X336779Y338138D02*
X335730D01*
X335205Y338662D01*
Y339712D01*
X335730Y340236D01*
X336779D01*
X337304Y339712D01*
Y339187D01*
X335205D01*
X338353Y340236D02*
Y338138D01*
Y339187D01*
X338878Y339712D01*
X339403Y340236D01*
X339928D01*
X310541Y347585D02*
X312640D01*
X311590D01*
Y344437D01*
X314214D02*
X315264D01*
X315788Y344962D01*
Y346011D01*
X315264Y346536D01*
X314214D01*
X313689Y346011D01*
Y344962D01*
X314214Y344437D01*
X316838Y343387D02*
Y346536D01*
X318412D01*
X318937Y346011D01*
Y344962D01*
X318412Y344437D01*
X316838D01*
X324709Y347585D02*
X323660D01*
X323135Y347060D01*
Y344962D01*
X323660Y344437D01*
X324709D01*
X325234Y344962D01*
Y347060D01*
X324709Y347585D01*
X326284Y346536D02*
X327333Y344437D01*
X328383Y346536D01*
X331007Y344437D02*
X329957D01*
X329432Y344962D01*
Y346011D01*
X329957Y346536D01*
X331007D01*
X331531Y346011D01*
Y345486D01*
X329432D01*
X332581Y346536D02*
Y344437D01*
Y345486D01*
X333106Y346011D01*
X333630Y346536D01*
X334155D01*
X335730Y344437D02*
X336779D01*
X336254D01*
Y347585D01*
X335730D01*
X338878Y346536D02*
X339928D01*
X340452Y346011D01*
Y344437D01*
X338878D01*
X338353Y344962D01*
X338878Y345486D01*
X340452D01*
X341502Y346536D02*
Y344962D01*
X342027Y344437D01*
X343601D01*
Y343912D01*
X343076Y343387D01*
X342551D01*
X343601Y344437D02*
Y346536D01*
X360296Y350736D02*
Y353885D01*
X361346Y352835D01*
X362396Y353885D01*
Y350736D01*
X363970Y352835D02*
X365019D01*
X365544Y352310D01*
Y350736D01*
X363970D01*
X363445Y351261D01*
X363970Y351785D01*
X365544D01*
X367118Y353360D02*
Y352835D01*
X366594D01*
X367643D01*
X367118D01*
Y351261D01*
X367643Y350736D01*
X370792D02*
X369742D01*
X369217Y351261D01*
Y352310D01*
X369742Y352835D01*
X370792D01*
X371317Y352310D01*
Y351785D01*
X369217D01*
X372366Y352835D02*
Y350736D01*
Y351785D01*
X372891Y352310D01*
X373416Y352835D01*
X373940D01*
X375515Y350736D02*
X376564D01*
X376039D01*
Y352835D01*
X375515D01*
X378663D02*
X379713D01*
X380238Y352310D01*
Y350736D01*
X378663D01*
X378138Y351261D01*
X378663Y351785D01*
X380238D01*
X381287Y350736D02*
X382337D01*
X381812D01*
Y353885D01*
X381287D01*
X362396Y315564D02*
X361871Y316089D01*
X360821D01*
X360296Y315564D01*
Y315040D01*
X360821Y314515D01*
X361871D01*
X362396Y313990D01*
Y313465D01*
X361871Y312941D01*
X360821D01*
X360296Y313465D01*
X363970Y312941D02*
X365019D01*
X365544Y313465D01*
Y314515D01*
X365019Y315040D01*
X363970D01*
X363445Y314515D01*
Y313465D01*
X363970Y312941D01*
X366594D02*
X367643D01*
X367118D01*
Y316089D01*
X366594D01*
X371317D02*
Y312941D01*
X369742D01*
X369217Y313465D01*
Y314515D01*
X369742Y315040D01*
X371317D01*
X373940Y312941D02*
X372891D01*
X372366Y313465D01*
Y314515D01*
X372891Y315040D01*
X373940D01*
X374465Y314515D01*
Y313990D01*
X372366D01*
X375515Y315040D02*
Y312941D01*
Y313990D01*
X376039Y314515D01*
X376564Y315040D01*
X377089D01*
X381812Y312941D02*
Y316089D01*
X383386D01*
X383911Y315564D01*
Y314515D01*
X383386Y313990D01*
X381812D01*
X382861D02*
X383911Y312941D01*
X386535D02*
X385485D01*
X384960Y313465D01*
Y314515D01*
X385485Y315040D01*
X386535D01*
X387059Y314515D01*
Y313990D01*
X384960D01*
X388109Y312941D02*
X389683D01*
X390208Y313465D01*
X389683Y313990D01*
X388634D01*
X388109Y314515D01*
X388634Y315040D01*
X390208D01*
X391258Y312941D02*
X392307D01*
X391782D01*
Y315040D01*
X391258D01*
X393881Y312941D02*
X395456D01*
X395981Y313465D01*
X395456Y313990D01*
X394406D01*
X393881Y314515D01*
X394406Y315040D01*
X395981D01*
X397555Y315564D02*
Y315040D01*
X397030D01*
X398079D01*
X397555D01*
Y313465D01*
X398079Y312941D01*
X362396Y321864D02*
X361871Y322389D01*
X360821D01*
X360296Y321864D01*
Y319765D01*
X360821Y319240D01*
X361871D01*
X362396Y319765D01*
X363970Y319240D02*
X365019D01*
X365544Y319765D01*
Y320814D01*
X365019Y321339D01*
X363970D01*
X363445Y320814D01*
Y319765D01*
X363970Y319240D01*
X366594Y318190D02*
Y321339D01*
X368168D01*
X368693Y320814D01*
Y319765D01*
X368168Y319240D01*
X366594D01*
X369742Y318190D02*
Y321339D01*
X371317D01*
X371841Y320814D01*
Y319765D01*
X371317Y319240D01*
X369742D01*
X374465D02*
X373416D01*
X372891Y319765D01*
Y320814D01*
X373416Y321339D01*
X374465D01*
X374990Y320814D01*
Y320289D01*
X372891D01*
X376039Y321339D02*
Y319240D01*
Y320289D01*
X376564Y320814D01*
X377089Y321339D01*
X377614D01*
X362396Y328688D02*
X360296D01*
Y327113D01*
X361346D01*
X360296D01*
Y325539D01*
X363445D02*
Y328688D01*
X365019D01*
X365544Y328163D01*
Y327113D01*
X365019Y326589D01*
X363445D01*
X364495D02*
X365544Y325539D01*
X366594Y327113D02*
X368693D01*
X371317Y325539D02*
Y328688D01*
X369742Y327113D01*
X371841D01*
X362396Y334462D02*
X361871Y334987D01*
X360821D01*
X360296Y334462D01*
Y332363D01*
X360821Y331838D01*
X361871D01*
X362396Y332363D01*
X363970Y331838D02*
X365019D01*
X365544Y332363D01*
Y333413D01*
X365019Y333937D01*
X363970D01*
X363445Y333413D01*
Y332363D01*
X363970Y331838D01*
X366594Y330789D02*
Y333937D01*
X368168D01*
X368693Y333413D01*
Y332363D01*
X368168Y331838D01*
X366594D01*
X369742Y330789D02*
Y333937D01*
X371317D01*
X371841Y333413D01*
Y332363D01*
X371317Y331838D01*
X369742D01*
X374465D02*
X373416D01*
X372891Y332363D01*
Y333413D01*
X373416Y333937D01*
X374465D01*
X374990Y333413D01*
Y332888D01*
X372891D01*
X376039Y333937D02*
Y331838D01*
Y332888D01*
X376564Y333413D01*
X377089Y333937D01*
X377614D01*
X362396Y340761D02*
X361871Y341286D01*
X360821D01*
X360296Y340761D01*
Y340236D01*
X360821Y339712D01*
X361871D01*
X362396Y339187D01*
Y338662D01*
X361871Y338138D01*
X360821D01*
X360296Y338662D01*
X363970Y338138D02*
X365019D01*
X365544Y338662D01*
Y339712D01*
X365019Y340236D01*
X363970D01*
X363445Y339712D01*
Y338662D01*
X363970Y338138D01*
X366594D02*
X367643D01*
X367118D01*
Y341286D01*
X366594D01*
X371317D02*
Y338138D01*
X369742D01*
X369217Y338662D01*
Y339712D01*
X369742Y340236D01*
X371317D01*
X373940Y338138D02*
X372891D01*
X372366Y338662D01*
Y339712D01*
X372891Y340236D01*
X373940D01*
X374465Y339712D01*
Y339187D01*
X372366D01*
X375515Y340236D02*
Y338138D01*
Y339187D01*
X376039Y339712D01*
X376564Y340236D01*
X377089D01*
X381812Y338138D02*
Y341286D01*
X383386D01*
X383911Y340761D01*
Y339712D01*
X383386Y339187D01*
X381812D01*
X382861D02*
X383911Y338138D01*
X386535D02*
X385485D01*
X384960Y338662D01*
Y339712D01*
X385485Y340236D01*
X386535D01*
X387059Y339712D01*
Y339187D01*
X384960D01*
X388109Y338138D02*
X389683D01*
X390208Y338662D01*
X389683Y339187D01*
X388634D01*
X388109Y339712D01*
X388634Y340236D01*
X390208D01*
X391258Y338138D02*
X392307D01*
X391782D01*
Y340236D01*
X391258D01*
X393881Y338138D02*
X395456D01*
X395981Y338662D01*
X395456Y339187D01*
X394406D01*
X393881Y339712D01*
X394406Y340236D01*
X395981D01*
X397555Y340761D02*
Y340236D01*
X397030D01*
X398079D01*
X397555D01*
Y338662D01*
X398079Y338138D01*
X406379Y353885D02*
X408478D01*
X407428D01*
Y350736D01*
X409527Y353885D02*
Y350736D01*
Y352310D01*
X410052Y352835D01*
X411102D01*
X411626Y352310D01*
Y350736D01*
X412676D02*
X413726D01*
X413201D01*
Y352835D01*
X412676D01*
X417399D02*
X415825D01*
X415300Y352310D01*
Y351261D01*
X415825Y350736D01*
X417399D01*
X418448D02*
Y353885D01*
Y351785D02*
X420023Y352835D01*
X418448Y351785D02*
X420023Y350736D01*
X421597D02*
Y352835D01*
X423171D01*
X423696Y352310D01*
Y350736D01*
X426320D02*
X425270D01*
X424746Y351261D01*
Y352310D01*
X425270Y352835D01*
X426320D01*
X426845Y352310D01*
Y351785D01*
X424746D01*
X427894Y350736D02*
X429468D01*
X429993Y351261D01*
X429468Y351785D01*
X428419D01*
X427894Y352310D01*
X428419Y352835D01*
X429993D01*
X431043Y350736D02*
X432617D01*
X433142Y351261D01*
X432617Y351785D01*
X431567D01*
X431043Y352310D01*
X431567Y352835D01*
X433142D01*
X406379Y315564D02*
X406904Y316089D01*
X407953D01*
X408478Y315564D01*
Y313465D01*
X407953Y312941D01*
X406904D01*
X406379Y313465D01*
Y315564D01*
X409527Y312941D02*
Y313465D01*
X410052D01*
Y312941D01*
X409527D01*
X413726D02*
Y316089D01*
X412151Y314515D01*
X414250D01*
X415300Y315564D02*
X415825Y316089D01*
X416874D01*
X417399Y315564D01*
Y313465D01*
X416874Y312941D01*
X415825D01*
X415300Y313465D01*
Y315564D01*
X418448Y312941D02*
Y315040D01*
X418973D01*
X419498Y314515D01*
Y312941D01*
Y314515D01*
X420023Y315040D01*
X420547Y314515D01*
Y312941D01*
X421597D02*
X422647D01*
X422122D01*
Y315040D01*
X421597D01*
X424221Y312941D02*
X425270D01*
X424746D01*
Y316089D01*
X424221D01*
X406379Y319240D02*
X407428D01*
X406904D01*
Y322389D01*
X406379Y321864D01*
X409003Y319240D02*
Y319765D01*
X409527D01*
Y319240D01*
X409003D01*
X413201D02*
Y322389D01*
X411626Y320814D01*
X413726D01*
X414775Y321864D02*
X415300Y322389D01*
X416349D01*
X416874Y321864D01*
Y319765D01*
X416349Y319240D01*
X415300D01*
X414775Y319765D01*
Y321864D01*
X417924Y319240D02*
Y321339D01*
X418448D01*
X418973Y320814D01*
Y319240D01*
Y320814D01*
X419498Y321339D01*
X420023Y320814D01*
Y319240D01*
X421072D02*
X422122D01*
X421597D01*
Y321339D01*
X421072D01*
X423696Y319240D02*
X424746D01*
X424221D01*
Y322389D01*
X423696D01*
X408478Y328688D02*
X407428Y328163D01*
X406379Y327113D01*
Y326064D01*
X406904Y325539D01*
X407953D01*
X408478Y326064D01*
Y326589D01*
X407953Y327113D01*
X406379D01*
X411626Y325539D02*
X409527D01*
X411626Y327638D01*
Y328163D01*
X411102Y328688D01*
X410052D01*
X409527Y328163D01*
X412676Y325539D02*
Y326064D01*
X413201D01*
Y325539D01*
X412676D01*
X415300Y326064D02*
X415825Y325539D01*
X416874D01*
X417399Y326064D01*
Y328163D01*
X416874Y328688D01*
X415825D01*
X415300Y328163D01*
Y327638D01*
X415825Y327113D01*
X417399D01*
X418448Y326064D02*
X418973Y325539D01*
X420023D01*
X420547Y326064D01*
Y328163D01*
X420023Y328688D01*
X418973D01*
X418448Y328163D01*
Y327638D01*
X418973Y327113D01*
X420547D01*
X421597Y325539D02*
Y327638D01*
X422122D01*
X422647Y327113D01*
Y325539D01*
Y327113D01*
X423171Y327638D01*
X423696Y327113D01*
Y325539D01*
X424746D02*
X425795D01*
X425270D01*
Y327638D01*
X424746D01*
X427369Y325539D02*
X428419D01*
X427894D01*
Y328688D01*
X427369D01*
X406379Y331838D02*
X407428D01*
X406904D01*
Y334987D01*
X406379Y334462D01*
X409003Y331838D02*
Y332363D01*
X409527D01*
Y331838D01*
X409003D01*
X413201D02*
Y334987D01*
X411626Y333413D01*
X413726D01*
X414775Y334462D02*
X415300Y334987D01*
X416349D01*
X416874Y334462D01*
Y332363D01*
X416349Y331838D01*
X415300D01*
X414775Y332363D01*
Y334462D01*
X417924Y331838D02*
Y333937D01*
X418448D01*
X418973Y333413D01*
Y331838D01*
Y333413D01*
X419498Y333937D01*
X420023Y333413D01*
Y331838D01*
X421072D02*
X422122D01*
X421597D01*
Y333937D01*
X421072D01*
X423696Y331838D02*
X424746D01*
X424221D01*
Y334987D01*
X423696D01*
X406379Y340761D02*
X406904Y341286D01*
X407953D01*
X408478Y340761D01*
Y338662D01*
X407953Y338138D01*
X406904D01*
X406379Y338662D01*
Y340761D01*
X409527Y338138D02*
Y338662D01*
X410052D01*
Y338138D01*
X409527D01*
X413726D02*
Y341286D01*
X412151Y339712D01*
X414250D01*
X415300Y340761D02*
X415825Y341286D01*
X416874D01*
X417399Y340761D01*
Y338662D01*
X416874Y338138D01*
X415825D01*
X415300Y338662D01*
Y340761D01*
X418448Y338138D02*
Y340236D01*
X418973D01*
X419498Y339712D01*
Y338138D01*
Y339712D01*
X420023Y340236D01*
X420547Y339712D01*
Y338138D01*
X421597D02*
X422647D01*
X422122D01*
Y340236D01*
X421597D01*
X424221Y338138D02*
X425270D01*
X424746D01*
Y341286D01*
X424221D01*
X443540Y353360D02*
X443015Y353885D01*
X441966D01*
X441441Y353360D01*
Y351261D01*
X441966Y350736D01*
X443015D01*
X443540Y351261D01*
X445114Y350736D02*
X446164D01*
X446689Y351261D01*
Y352310D01*
X446164Y352835D01*
X445114D01*
X444590Y352310D01*
Y351261D01*
X445114Y350736D01*
X447738D02*
Y352835D01*
X449312D01*
X449837Y352310D01*
Y350736D01*
X450887D02*
X452461D01*
X452986Y351261D01*
X452461Y351785D01*
X451411D01*
X450887Y352310D01*
X451411Y352835D01*
X452986D01*
X454560Y353360D02*
Y352835D01*
X454035D01*
X455085D01*
X454560D01*
Y351261D01*
X455085Y350736D01*
X457184Y352835D02*
X458233D01*
X458758Y352310D01*
Y350736D01*
X457184D01*
X456659Y351261D01*
X457184Y351785D01*
X458758D01*
X459808Y350736D02*
Y352835D01*
X461382D01*
X461907Y352310D01*
Y350736D01*
X463481Y353360D02*
Y352835D01*
X462956D01*
X464006D01*
X463481D01*
Y351261D01*
X464006Y350736D01*
X441441Y315564D02*
X441966Y316089D01*
X443015D01*
X443540Y315564D01*
Y315040D01*
X443015Y314515D01*
X442490D01*
X443015D01*
X443540Y313990D01*
Y313465D01*
X443015Y312941D01*
X441966D01*
X441441Y313465D01*
X444590Y312941D02*
Y313465D01*
X445114D01*
Y312941D01*
X444590D01*
X449312Y316089D02*
X447213D01*
Y314515D01*
X448263Y315040D01*
X448788D01*
X449312Y314515D01*
Y313465D01*
X448788Y312941D01*
X447738D01*
X447213Y313465D01*
X443015Y325539D02*
Y328688D01*
X441441Y327113D01*
X443540D01*
X444590Y325539D02*
Y326064D01*
X445114D01*
Y325539D01*
X444590D01*
X447213Y328163D02*
X447738Y328688D01*
X448788D01*
X449312Y328163D01*
Y327638D01*
X448788Y327113D01*
X449312Y326589D01*
Y326064D01*
X448788Y325539D01*
X447738D01*
X447213Y326064D01*
Y326589D01*
X447738Y327113D01*
X447213Y327638D01*
Y328163D01*
X447738Y327113D02*
X448788D01*
X441441Y340761D02*
X441966Y341286D01*
X443015D01*
X443540Y340761D01*
Y340236D01*
X443015Y339712D01*
X442490D01*
X443015D01*
X443540Y339187D01*
Y338662D01*
X443015Y338138D01*
X441966D01*
X441441Y338662D01*
X444590Y338138D02*
Y338662D01*
X445114D01*
Y338138D01*
X444590D01*
X449312Y341286D02*
X447213D01*
Y339712D01*
X448263Y340236D01*
X448788D01*
X449312Y339712D01*
Y338662D01*
X448788Y338138D01*
X447738D01*
X447213Y338662D01*
X472305Y353885D02*
Y350736D01*
X473879D01*
X474404Y351261D01*
Y351785D01*
X473879Y352310D01*
X472305D01*
X473879D01*
X474404Y352835D01*
Y353360D01*
X473879Y353885D01*
X472305D01*
X475979Y350736D02*
X477028D01*
X477553Y351261D01*
Y352310D01*
X477028Y352835D01*
X475979D01*
X475454Y352310D01*
Y351261D01*
X475979Y350736D01*
X479127Y352835D02*
X480177D01*
X480701Y352310D01*
Y350736D01*
X479127D01*
X478602Y351261D01*
X479127Y351785D01*
X480701D01*
X481751Y352835D02*
Y350736D01*
Y351785D01*
X482276Y352310D01*
X482800Y352835D01*
X483325D01*
X486999Y353885D02*
Y350736D01*
X485424D01*
X484900Y351261D01*
Y352310D01*
X485424Y352835D01*
X486999D01*
X491197Y353885D02*
Y350736D01*
X493296D01*
X494870Y352835D02*
X495920D01*
X496444Y352310D01*
Y350736D01*
X494870D01*
X494345Y351261D01*
X494870Y351785D01*
X496444D01*
X497494Y352835D02*
Y351261D01*
X498019Y350736D01*
X499593D01*
Y350211D01*
X499068Y349686D01*
X498543D01*
X499593Y350736D02*
Y352835D01*
X502217Y350736D02*
X501167D01*
X500642Y351261D01*
Y352310D01*
X501167Y352835D01*
X502217D01*
X502741Y352310D01*
Y351785D01*
X500642D01*
X503791Y352835D02*
Y350736D01*
Y351785D01*
X504316Y352310D01*
X504841Y352835D01*
X505365D01*
X512187Y353360D02*
X511662Y353885D01*
X510613D01*
X510088Y353360D01*
Y352835D01*
X510613Y352310D01*
X511662D01*
X512187Y351785D01*
Y351261D01*
X511662Y350736D01*
X510613D01*
X510088Y351261D01*
X513762Y353360D02*
Y352835D01*
X513237D01*
X514286D01*
X513762D01*
Y351261D01*
X514286Y350736D01*
X516385Y352835D02*
X517435D01*
X517960Y352310D01*
Y350736D01*
X516385D01*
X515861Y351261D01*
X516385Y351785D01*
X517960D01*
X521108Y352835D02*
X519534D01*
X519009Y352310D01*
Y351261D01*
X519534Y350736D01*
X521108D01*
X522158D02*
Y353885D01*
Y351785D02*
X523732Y352835D01*
X522158Y351785D02*
X523732Y350736D01*
D73*
X284923Y349161D02*
X528882D01*
X284923Y355460D02*
X528882D01*
X284923Y305067D02*
Y355460D01*
Y305067D02*
X307391D01*
X284923Y311366D02*
X307391D01*
X284923Y317665D02*
X307391D01*
X284923Y323964D02*
X307391D01*
X284923Y330263D02*
X307391D01*
X284923Y336563D02*
X307391D01*
X284923Y342862D02*
X307391D01*
Y305067D02*
Y355460D01*
Y305067D02*
X357147D01*
X307391Y311366D02*
X357147D01*
X307391Y317665D02*
X357147D01*
X307391Y323964D02*
X357147D01*
X307391Y330263D02*
X357147D01*
X307391Y336563D02*
X357147D01*
X307391Y342862D02*
X357147D01*
Y305067D02*
Y355460D01*
Y305067D02*
X403229D01*
X357147Y311366D02*
X403229D01*
X357147Y317665D02*
X403229D01*
X357147Y323964D02*
X403229D01*
X357147Y330263D02*
X403229D01*
X357147Y336563D02*
X403229D01*
X357147Y342862D02*
X403229D01*
Y305067D02*
Y355460D01*
Y305067D02*
X438291D01*
X403229Y311366D02*
X438291D01*
X403229Y317665D02*
X438291D01*
X403229Y323964D02*
X438291D01*
X403229Y330263D02*
X438291D01*
X403229Y336563D02*
X438291D01*
X403229Y342862D02*
X438291D01*
Y305067D02*
Y355460D01*
Y305067D02*
X469156D01*
X438291Y311366D02*
X469156D01*
X438291Y317665D02*
X469156D01*
X438291Y323964D02*
X469156D01*
X438291Y330263D02*
X469156D01*
X438291Y336563D02*
X469156D01*
X438291Y342862D02*
X469156D01*
Y305067D02*
Y355460D01*
Y305067D02*
X528882D01*
X469156Y311366D02*
X528882D01*
X469156Y317665D02*
X528882D01*
X469156Y323964D02*
X528882D01*
X469156Y330263D02*
X528882D01*
X469156Y336563D02*
X528882D01*
X469156Y342862D02*
X528882D01*
Y305067D02*
Y355460D01*
X284923Y161655D02*
Y303492D01*
X528882D01*
X528882Y161655D01*
X284923D02*
X528882D01*
D88*
X525732Y305067D02*
X528882Y308216D01*
X522582Y305067D02*
X528882Y311366D01*
X519433Y305067D02*
X525732Y311366D01*
X516283Y305067D02*
X522582Y311366D01*
X513134Y305067D02*
X519433Y311366D01*
X509984Y305067D02*
X516283Y311366D01*
X506834Y305067D02*
X513134Y311366D01*
X503685Y305067D02*
X509984Y311366D01*
X500535Y305067D02*
X506834Y311366D01*
X497386Y305067D02*
X503685Y311366D01*
X494236Y305067D02*
X500535Y311366D01*
X491086Y305067D02*
X497386Y311366D01*
X487937Y305067D02*
X494236Y311366D01*
X484787Y305067D02*
X491086Y311366D01*
X481638Y305067D02*
X487937Y311366D01*
X478488Y305067D02*
X484787Y311366D01*
X475338Y305067D02*
X481637Y311366D01*
X472189Y305067D02*
X478488Y311366D01*
X469156Y305183D02*
X475338Y311366D01*
X469156Y308333D02*
X472189Y311366D01*
X525732D02*
X528882Y314515D01*
X522582Y311366D02*
X528882Y317665D01*
X519433Y311366D02*
X525732Y317665D01*
X516283Y311366D02*
X522582Y317665D01*
X513134Y311366D02*
X519433Y317665D01*
X509984Y311366D02*
X516283Y317665D01*
X506834Y311366D02*
X513134Y317665D01*
X503685Y311366D02*
X509984Y317665D01*
X500535Y311366D02*
X506834Y317665D01*
X497386Y311366D02*
X503685Y317665D01*
X494236Y311366D02*
X500535Y317665D01*
X491086Y311366D02*
X497386Y317665D01*
X487937Y311366D02*
X494236Y317665D01*
X484787Y311366D02*
X491086Y317665D01*
X481638Y311366D02*
X487937Y317665D01*
X478488Y311366D02*
X484787Y317665D01*
X475338Y311366D02*
X481637Y317665D01*
X472189Y311366D02*
X478488Y317665D01*
X469156Y311482D02*
X475338Y317665D01*
X469156Y314632D02*
X472189Y317665D01*
X525732D02*
X528882Y320815D01*
X522582Y317665D02*
X528882Y323964D01*
X519433Y317665D02*
X525732Y323964D01*
X516283Y317665D02*
X522582Y323964D01*
X513134Y317665D02*
X519433Y323964D01*
X509984Y317665D02*
X516283Y323964D01*
X506834Y317665D02*
X513134Y323964D01*
X503685Y317665D02*
X509984Y323964D01*
X500535Y317665D02*
X506834Y323964D01*
X497386Y317665D02*
X503685Y323964D01*
X494236Y317665D02*
X500535Y323964D01*
X491086Y317665D02*
X497386Y323964D01*
X487937Y317665D02*
X494236Y323964D01*
X484787Y317665D02*
X491086Y323964D01*
X481638Y317665D02*
X487937Y323964D01*
X478488Y317665D02*
X484787Y323964D01*
X475338Y317665D02*
X481637Y323964D01*
X472189Y317665D02*
X478488Y323964D01*
X469156Y317781D02*
X475338Y323964D01*
X469156Y320931D02*
X472189Y323964D01*
X525732D02*
X528882Y327114D01*
X522582Y323964D02*
X528882Y330263D01*
X519433Y323964D02*
X525732Y330263D01*
X516283Y323964D02*
X522582Y330263D01*
X513134Y323964D02*
X519433Y330263D01*
X509984Y323964D02*
X516283Y330263D01*
X506834Y323964D02*
X513134Y330263D01*
X503685Y323964D02*
X509984Y330263D01*
X500535Y323964D02*
X506834Y330263D01*
X497386Y323964D02*
X503685Y330263D01*
X494236Y323964D02*
X500535Y330263D01*
X491086Y323964D02*
X497386Y330263D01*
X487937Y323964D02*
X494236Y330263D01*
X484787Y323964D02*
X491086Y330263D01*
X481638Y323964D02*
X487937Y330263D01*
X478488Y323964D02*
X484787Y330263D01*
X475338Y323964D02*
X481637Y330263D01*
X472189Y323964D02*
X478488Y330263D01*
X469156Y324081D02*
X475338Y330263D01*
X469156Y327230D02*
X472189Y330263D01*
X525732D02*
X528882Y333413D01*
X522582Y330263D02*
X528882Y336563D01*
X519433Y330263D02*
X525732Y336563D01*
X516283Y330263D02*
X522582Y336563D01*
X513134Y330263D02*
X519433Y336563D01*
X509984Y330263D02*
X516283Y336563D01*
X506834Y330263D02*
X513134Y336563D01*
X503685Y330263D02*
X509984Y336563D01*
X500535Y330263D02*
X506834Y336563D01*
X497386Y330263D02*
X503685Y336563D01*
X494236Y330263D02*
X500535Y336563D01*
X491086Y330263D02*
X497386Y336563D01*
X487937Y330263D02*
X494236Y336563D01*
X484787Y330263D02*
X491086Y336563D01*
X481638Y330263D02*
X487937Y336563D01*
X478488Y330263D02*
X484787Y336563D01*
X475338Y330263D02*
X481637Y336563D01*
X472189Y330263D02*
X478488Y336563D01*
X469156Y330380D02*
X475338Y336563D01*
X469156Y333529D02*
X472189Y336563D01*
X525732D02*
X528882Y339712D01*
X522582Y336563D02*
X528882Y342862D01*
X519433Y336563D02*
X525732Y342862D01*
X516283Y336563D02*
X522582Y342862D01*
X513134Y336563D02*
X519433Y342862D01*
X509984Y336563D02*
X516283Y342862D01*
X506834Y336563D02*
X513134Y342862D01*
X503685Y336563D02*
X509984Y342862D01*
X500535Y336563D02*
X506834Y342862D01*
X497386Y336563D02*
X503685Y342862D01*
X494236Y336563D02*
X500535Y342862D01*
X491086Y336563D02*
X497386Y342862D01*
X487937Y336563D02*
X494236Y342862D01*
X484787Y336563D02*
X491086Y342862D01*
X481638Y336563D02*
X487937Y342862D01*
X478488Y336563D02*
X484787Y342862D01*
X475338Y336563D02*
X481637Y342862D01*
X472189Y336563D02*
X478488Y342862D01*
X469156Y336679D02*
X475338Y342862D01*
X469156Y339829D02*
X472189Y342862D01*
X525732D02*
X528882Y346011D01*
X522582Y342862D02*
X528882Y349161D01*
X519433Y342862D02*
X525732Y349161D01*
X516283Y342862D02*
X522582Y349161D01*
X513134Y342862D02*
X519433Y349161D01*
X509984Y342862D02*
X516283Y349161D01*
X506834Y342862D02*
X513134Y349161D01*
X503685Y342862D02*
X509984Y349161D01*
X500535Y342862D02*
X506834Y349161D01*
X497386Y342862D02*
X503685Y349161D01*
X494236Y342862D02*
X500535Y349161D01*
X491086Y342862D02*
X497386Y349161D01*
X487937Y342862D02*
X494236Y349161D01*
X484787Y342862D02*
X491086Y349161D01*
X481638Y342862D02*
X487937Y349161D01*
X478488Y342862D02*
X484787Y349161D01*
X475338Y342862D02*
X481637Y349161D01*
X472189Y342862D02*
X478488Y349161D01*
X469156Y342978D02*
X475338Y349161D01*
X469156Y346128D02*
X472189Y349161D01*
X525678Y161601D02*
X528882Y164805D01*
X522528Y161601D02*
X528882Y167955D01*
X519379Y161601D02*
X528882Y171104D01*
X516229Y161601D02*
X528882Y174254D01*
X513080Y161601D02*
X528882Y177404D01*
X509930Y161601D02*
X528882Y180553D01*
X506780Y161601D02*
X528882Y183703D01*
X503631Y161601D02*
X528882Y186852D01*
X500481Y161601D02*
X528882Y190002D01*
X497331Y161601D02*
X528882Y193152D01*
X494182Y161601D02*
X528882Y196301D01*
X491032Y161601D02*
X528882Y199451D01*
X487883Y161601D02*
X528882Y202600D01*
X484733Y161601D02*
X528882Y205750D01*
X481583Y161601D02*
X528882Y208900D01*
X478434Y161601D02*
X528882Y212049D01*
X475284Y161601D02*
X528882Y215199D01*
X472135Y161601D02*
X528882Y218349D01*
X468985Y161601D02*
X528882Y221498D01*
X465835Y161601D02*
X528882Y224648D01*
X462686Y161601D02*
X528882Y227797D01*
X459536Y161601D02*
X528882Y230947D01*
X456387Y161601D02*
X528882Y234097D01*
X453237Y161601D02*
X528882Y237246D01*
X450087Y161601D02*
X528882Y240396D01*
X446938Y161601D02*
X528882Y243545D01*
X443788Y161601D02*
X528882Y246695D01*
X440639Y161601D02*
X528882Y249845D01*
X437489Y161601D02*
X528882Y252994D01*
X434339Y161601D02*
X528882Y256144D01*
X431190Y161601D02*
X528882Y259293D01*
X428040Y161601D02*
X528882Y262443D01*
X424891Y161601D02*
X528882Y265593D01*
X421741Y161601D02*
X528882Y268742D01*
X418591Y161601D02*
X528882Y271892D01*
X415442Y161601D02*
X528882Y275042D01*
X412292Y161601D02*
X528882Y278191D01*
X409142Y161601D02*
X528882Y281341D01*
X405993Y161601D02*
X528882Y284490D01*
X402843Y161601D02*
X528882Y287640D01*
X399694Y161601D02*
X528882Y290790D01*
X396544Y161601D02*
X528882Y293939D01*
X393394Y161601D02*
X528882Y297089D01*
X390245Y161601D02*
X528882Y300238D01*
X387095Y161601D02*
X528882Y303388D01*
X383946Y161601D02*
X525890Y303546D01*
X380796Y161601D02*
X522741Y303546D01*
X377646Y161601D02*
X519591Y303546D01*
X374497Y161601D02*
X516441Y303546D01*
X371347Y161601D02*
X513292Y303546D01*
X368197Y161601D02*
X510142Y303546D01*
X365048Y161601D02*
X506992Y303546D01*
X361898Y161601D02*
X503843Y303546D01*
X358749Y161601D02*
X500693Y303546D01*
X355599Y161601D02*
X497544Y303546D01*
X352449Y161601D02*
X494394Y303546D01*
X349300Y161601D02*
X491245Y303546D01*
X346150Y161601D02*
X488095Y303546D01*
X343001Y161601D02*
X484945Y303546D01*
X339851Y161601D02*
X481796Y303546D01*
X336701Y161601D02*
X478646Y303546D01*
X333552Y161601D02*
X475496Y303546D01*
X330402Y161601D02*
X472347Y303546D01*
X327253Y161601D02*
X469197Y303546D01*
X324103Y161601D02*
X466048Y303546D01*
X320953Y161601D02*
X462898Y303546D01*
X317804Y161601D02*
X459748Y303546D01*
X314654Y161601D02*
X456599Y303546D01*
X311505Y161601D02*
X453449Y303546D01*
X308355Y161601D02*
X450300Y303546D01*
X305205Y161601D02*
X447150Y303546D01*
X302056Y161601D02*
X444000Y303546D01*
X298906Y161601D02*
X440851Y303546D01*
X295757Y161601D02*
X437701Y303546D01*
X292607Y161601D02*
X434551Y303546D01*
X289457Y161601D02*
X431402Y303546D01*
X286308Y161601D02*
X428252Y303546D01*
X284923Y163367D02*
X425103Y303546D01*
X284923Y166516D02*
X421953Y303546D01*
X284923Y169666D02*
X418804Y303546D01*
X284923Y172815D02*
X415654Y303546D01*
X284923Y175965D02*
X412504Y303546D01*
X284923Y179115D02*
X409355Y303546D01*
X284923Y182264D02*
X406205Y303546D01*
X284923Y185414D02*
X403055Y303546D01*
X284923Y188563D02*
X399906Y303546D01*
X284923Y191713D02*
X396756Y303546D01*
X284923Y194863D02*
X393607Y303546D01*
X284923Y198012D02*
X390457Y303546D01*
X284923Y201162D02*
X387307Y303546D01*
X284923Y204311D02*
X384158Y303546D01*
X284923Y207461D02*
X381008Y303546D01*
X284923Y210611D02*
X377858Y303546D01*
X284923Y213760D02*
X374709Y303546D01*
X284923Y216910D02*
X371559Y303546D01*
X284923Y220059D02*
X368410Y303546D01*
X284923Y223209D02*
X365260Y303546D01*
X284923Y226359D02*
X362110Y303546D01*
X284923Y229508D02*
X358961Y303546D01*
X284923Y232658D02*
X355811Y303546D01*
X284923Y235808D02*
X352662Y303546D01*
X284923Y238957D02*
X349512Y303546D01*
X284923Y242107D02*
X346362Y303546D01*
X284923Y245256D02*
X343213Y303546D01*
X284923Y248406D02*
X340063Y303546D01*
X284923Y251556D02*
X336914Y303546D01*
X284923Y254705D02*
X333764Y303546D01*
X284923Y257855D02*
X330614Y303546D01*
X284923Y261004D02*
X327465Y303546D01*
X284923Y264154D02*
X324315Y303546D01*
X284923Y267304D02*
X321165Y303546D01*
X284923Y270453D02*
X318016Y303546D01*
X284923Y273603D02*
X314866Y303546D01*
X284923Y276752D02*
X311717Y303546D01*
X284923Y279902D02*
X308567Y303546D01*
X284923Y283052D02*
X305417Y303546D01*
X284923Y286201D02*
X302268Y303546D01*
X284923Y289351D02*
X299118Y303546D01*
X284923Y292501D02*
X295969Y303546D01*
X284923Y295650D02*
X292819Y303546D01*
X284923Y298800D02*
X289669Y303546D01*
X284923Y301949D02*
X286520Y303546D01*
D89*
X124336Y172281D02*
X122337Y171281D01*
X120337Y169282D01*
Y167282D01*
X121337Y166283D01*
X123337D01*
X124336Y167282D01*
Y168282D01*
X123337Y169282D01*
X120337D01*
X126336Y171281D02*
X127335Y172281D01*
X129334D01*
X130334Y171281D01*
Y170282D01*
X129334Y169282D01*
X130334Y168282D01*
Y167282D01*
X129334Y166283D01*
X127335D01*
X126336Y167282D01*
Y168282D01*
X127335Y169282D01*
X126336Y170282D01*
Y171281D01*
X127335Y169282D02*
X129334D01*
X132334Y166283D02*
Y167282D01*
X133333D01*
Y166283D01*
X132334D01*
X137332Y171281D02*
X138332Y172281D01*
X140331D01*
X141331Y171281D01*
Y170282D01*
X140331Y169282D01*
X141331Y168282D01*
Y167282D01*
X140331Y166283D01*
X138332D01*
X137332Y167282D01*
Y168282D01*
X138332Y169282D01*
X137332Y170282D01*
Y171281D01*
X138332Y169282D02*
X140331D01*
X143330Y171281D02*
X144330Y172281D01*
X146329D01*
X147329Y171281D01*
Y167282D01*
X146329Y166283D01*
X144330D01*
X143330Y167282D01*
Y171281D01*
X-24354Y66683D02*
X-30352D01*
X-27353Y63684D01*
Y67683D01*
X-29352Y69682D02*
X-30352Y70682D01*
Y72681D01*
X-29352Y73681D01*
X-25353D01*
X-24354Y72681D01*
Y70682D01*
X-25353Y69682D01*
X-29352D01*
X-24354Y75680D02*
X-25353D01*
Y76680D01*
X-24354D01*
Y75680D01*
X-29352Y80678D02*
X-30352Y81678D01*
Y83677D01*
X-29352Y84677D01*
X-25353D01*
X-24354Y83677D01*
Y81678D01*
X-25353Y80678D01*
X-29352D01*
Y86676D02*
X-30352Y87676D01*
Y89675D01*
X-29352Y90675D01*
X-25353D01*
X-24354Y89675D01*
Y87676D01*
X-25353Y86676D01*
X-29352D01*
M02*
