G04*
G04 #@! TF.GenerationSoftware,Altium Limited,Altium Designer,18.0.7 (293)*
G04*
G04 Layer_Color=8388736*
%FSLAX25Y25*%
%MOIN*%
G70*
G01*
G75*
%ADD37R,0.05131X0.11036*%
%ADD38R,0.05131X0.11824*%
%ADD39R,0.03556X0.05918*%
%ADD40R,0.05918X0.03556*%
%ADD41R,0.04540X0.04737*%
%ADD42R,0.05800X0.07100*%
%ADD43R,0.04737X0.04540*%
%ADD44R,0.07099X0.05131*%
%ADD45R,0.04698X0.15721*%
%ADD46R,0.43477X0.31824*%
G04:AMPARAMS|DCode=47|XSize=31.62mil|YSize=61.15mil|CornerRadius=5.77mil|HoleSize=0mil|Usage=FLASHONLY|Rotation=0.000|XOffset=0mil|YOffset=0mil|HoleType=Round|Shape=RoundedRectangle|*
%AMROUNDEDRECTD47*
21,1,0.03162,0.04961,0,0,0.0*
21,1,0.02008,0.06115,0,0,0.0*
1,1,0.01154,0.01004,-0.02480*
1,1,0.01154,-0.01004,-0.02480*
1,1,0.01154,-0.01004,0.02480*
1,1,0.01154,0.01004,0.02480*
%
%ADD47ROUNDEDRECTD47*%
G04:AMPARAMS|DCode=48|XSize=31.62mil|YSize=47.37mil|CornerRadius=9.91mil|HoleSize=0mil|Usage=FLASHONLY|Rotation=0.000|XOffset=0mil|YOffset=0mil|HoleType=Round|Shape=RoundedRectangle|*
%AMROUNDEDRECTD48*
21,1,0.03162,0.02756,0,0,0.0*
21,1,0.01181,0.04737,0,0,0.0*
1,1,0.01981,0.00591,-0.01378*
1,1,0.01981,-0.00591,-0.01378*
1,1,0.01981,-0.00591,0.01378*
1,1,0.01981,0.00591,0.01378*
%
%ADD48ROUNDEDRECTD48*%
%ADD49R,0.03950X0.07493*%
%ADD50R,0.01981X0.06607*%
%ADD51R,0.06607X0.01981*%
%ADD52R,0.05131X0.07099*%
%ADD53R,0.07100X0.05800*%
%ADD54R,0.08280X0.06312*%
%ADD55R,0.05524X0.07493*%
%ADD56R,0.02769X0.04737*%
%ADD57R,0.12611X0.22453*%
%ADD58R,0.07296X0.07296*%
%ADD59C,0.07296*%
%ADD60C,0.04769*%
%ADD61R,0.04769X0.04769*%
%ADD62R,0.04769X0.04769*%
%ADD63C,0.06706*%
%ADD64R,0.06706X0.06706*%
%ADD65C,0.32296*%
%ADD66C,0.04855*%
%ADD67C,0.07493*%
%ADD68R,0.07493X0.07493*%
%ADD69C,0.02375*%
D37*
X262677Y46575D02*
D03*
X254803D02*
D03*
X246929D02*
D03*
X239055D02*
D03*
X231181D02*
D03*
X223307D02*
D03*
X215433D02*
D03*
X207559D02*
D03*
Y107205D02*
D03*
X215433D02*
D03*
X223307D02*
D03*
X231181D02*
D03*
X239055D02*
D03*
X246929D02*
D03*
X254803D02*
D03*
D38*
X262677Y106811D02*
D03*
D39*
X179882Y35512D02*
D03*
X187362D02*
D03*
X128937Y109843D02*
D03*
X121457D02*
D03*
D40*
X194921Y92638D02*
D03*
Y85158D02*
D03*
X181417Y48031D02*
D03*
Y55512D02*
D03*
X167008Y131457D02*
D03*
Y123976D02*
D03*
D41*
X182520Y124764D02*
D03*
Y118465D02*
D03*
X155669Y131535D02*
D03*
Y125236D02*
D03*
X145905Y131535D02*
D03*
Y125236D02*
D03*
X170000Y53268D02*
D03*
Y46968D02*
D03*
D42*
X114630Y146850D02*
D03*
X106630Y146850D02*
D03*
X126118Y147047D02*
D03*
X134118Y147047D02*
D03*
X138646Y52362D02*
D03*
X130646Y52362D02*
D03*
X98362Y109843D02*
D03*
X106362Y109843D02*
D03*
D43*
X232441Y126929D02*
D03*
X226142D02*
D03*
X115748Y81890D02*
D03*
X122047D02*
D03*
X98425Y70787D02*
D03*
X104724D02*
D03*
D44*
X229685Y137598D02*
D03*
Y150984D02*
D03*
D45*
X56496Y87795D02*
D03*
X63189D02*
D03*
X69882D02*
D03*
X76575D02*
D03*
X83268D02*
D03*
D46*
X69882Y130118D02*
D03*
D47*
X98425Y84075D02*
D03*
X102165D02*
D03*
X105905D02*
D03*
Y93405D02*
D03*
X98425D02*
D03*
D48*
X157874Y45866D02*
D03*
X150394D02*
D03*
X154134Y36417D02*
D03*
D49*
X129134Y94882D02*
D03*
X115748D02*
D03*
D50*
X151772Y106843D02*
D03*
X153740D02*
D03*
X155709D02*
D03*
X157677D02*
D03*
X159646D02*
D03*
X161614D02*
D03*
X163583D02*
D03*
X165551D02*
D03*
X167520D02*
D03*
X169488D02*
D03*
X171457D02*
D03*
X173425D02*
D03*
Y73472D02*
D03*
X171457D02*
D03*
X169488D02*
D03*
X167520D02*
D03*
X165551D02*
D03*
X163583D02*
D03*
X161614D02*
D03*
X159646D02*
D03*
X157677D02*
D03*
X155709D02*
D03*
X153740D02*
D03*
X151772D02*
D03*
D51*
X179283Y100984D02*
D03*
Y99016D02*
D03*
Y97047D02*
D03*
Y95079D02*
D03*
Y93110D02*
D03*
Y91142D02*
D03*
Y89173D02*
D03*
Y87205D02*
D03*
Y85236D02*
D03*
Y83268D02*
D03*
Y81299D02*
D03*
Y79331D02*
D03*
X145913D02*
D03*
Y81299D02*
D03*
Y83268D02*
D03*
Y85236D02*
D03*
Y87205D02*
D03*
Y89173D02*
D03*
Y91142D02*
D03*
Y93110D02*
D03*
Y95079D02*
D03*
Y97047D02*
D03*
Y99016D02*
D03*
Y100984D02*
D03*
D52*
X115748Y70866D02*
D03*
X129134D02*
D03*
D53*
X105905Y52299D02*
D03*
X105905Y60299D02*
D03*
X118110Y60299D02*
D03*
X118110Y52299D02*
D03*
D54*
X38976Y50984D02*
D03*
Y37992D02*
D03*
D55*
X218504Y9646D02*
D03*
X186221D02*
D03*
D56*
X213386Y17323D02*
D03*
X210236D02*
D03*
X207087D02*
D03*
X203937D02*
D03*
X200787D02*
D03*
X197638D02*
D03*
X194488D02*
D03*
X191339D02*
D03*
D57*
X90945Y37992D02*
D03*
X53543D02*
D03*
D58*
X167480Y144882D02*
D03*
X159252Y15748D02*
D03*
D59*
X157480Y144882D02*
D03*
X147480D02*
D03*
X169095Y15748D02*
D03*
D60*
X11500Y97520D02*
D03*
X123622Y12122D02*
D03*
D61*
X34500Y97520D02*
D03*
D62*
X123622Y35122D02*
D03*
D63*
X185472Y145866D02*
D03*
X195472D02*
D03*
X205472D02*
D03*
D64*
X215472D02*
D03*
D65*
X252362Y18307D02*
D03*
X18500Y139020D02*
D03*
Y18232D02*
D03*
X252480Y139173D02*
D03*
D66*
X126181Y129331D02*
D03*
X106968D02*
D03*
D67*
X16500Y47020D02*
D03*
D68*
Y62020D02*
D03*
D69*
X171535Y41181D02*
D03*
X168425Y41260D02*
D03*
X190984Y105591D02*
D03*
X179291D02*
D03*
X231181Y115709D02*
D03*
X217362Y16772D02*
D03*
Y20157D02*
D03*
X173189Y98976D02*
D03*
X170276Y99016D02*
D03*
X171496Y80158D02*
D03*
X171457Y83110D02*
D03*
X155079Y87283D02*
D03*
X152244Y87244D02*
D03*
X153740Y112480D02*
D03*
X153701Y115394D02*
D03*
X226102Y130945D02*
D03*
X221693Y126339D02*
D03*
X227913Y145945D02*
D03*
X231653Y146024D02*
D03*
X183858Y130551D02*
D03*
X180354Y130630D02*
D03*
X168465Y135787D02*
D03*
X165079D02*
D03*
X135394Y140669D02*
D03*
X132205Y140709D02*
D03*
X101024Y144882D02*
D03*
Y148740D02*
D03*
X102205Y88976D02*
D03*
Y91811D02*
D03*
X119016Y93150D02*
D03*
X118976Y96614D02*
D03*
X111102Y107677D02*
D03*
X111063Y111693D02*
D03*
X150669Y130315D02*
D03*
Y133622D02*
D03*
X176535Y135827D02*
D03*
X39094Y57874D02*
D03*
X39173Y62441D02*
D03*
X202362Y43937D02*
D03*
X202441Y49331D02*
D03*
X264488Y58228D02*
D03*
X260630Y58268D02*
D03*
X261024Y116614D02*
D03*
X255669Y116654D02*
D03*
X117244Y76260D02*
D03*
X114409Y77598D02*
D03*
X111850Y58819D02*
D03*
X111890Y62244D02*
D03*
X140512Y45079D02*
D03*
X136772Y45118D02*
D03*
X176457Y44842D02*
D03*
X147126Y44528D02*
D03*
Y47323D02*
D03*
X241535Y34409D02*
D03*
X254842Y39409D02*
D03*
X87559Y150709D02*
D03*
X82047Y150748D02*
D03*
X76181Y150827D02*
D03*
X70197D02*
D03*
X64803D02*
D03*
X58583D02*
D03*
X52244Y150748D02*
D03*
X70866Y98858D02*
D03*
X68268Y101024D02*
D03*
X170000Y58740D02*
D03*
X148071D02*
D03*
X182126Y25827D02*
D03*
X172480D02*
D03*
X176457Y67756D02*
D03*
X231181Y121181D02*
D03*
X140039Y79331D02*
D03*
X148583Y111260D02*
D03*
M02*
