G04*
G04 #@! TF.GenerationSoftware,Altium Limited,Altium Designer,18.0.7 (293)*
G04*
G04 Layer_Physical_Order=1*
G04 Layer_Color=255*
%FSLAX25Y25*%
%MOIN*%
G70*
G01*
G75*
%ADD17R,0.04331X0.10236*%
%ADD18R,0.04331X0.11024*%
%ADD19R,0.02756X0.05118*%
%ADD20R,0.05118X0.02756*%
%ADD21R,0.03740X0.03937*%
%ADD22R,0.05000X0.06300*%
%ADD23R,0.03937X0.03740*%
%ADD24R,0.06299X0.04331*%
%ADD25R,0.03898X0.14921*%
G04:AMPARAMS|DCode=26|XSize=23.62mil|YSize=53.15mil|CornerRadius=1.77mil|HoleSize=0mil|Usage=FLASHONLY|Rotation=0.000|XOffset=0mil|YOffset=0mil|HoleType=Round|Shape=RoundedRectangle|*
%AMROUNDEDRECTD26*
21,1,0.02362,0.04961,0,0,0.0*
21,1,0.02008,0.05315,0,0,0.0*
1,1,0.00354,0.01004,-0.02480*
1,1,0.00354,-0.01004,-0.02480*
1,1,0.00354,-0.01004,0.02480*
1,1,0.00354,0.01004,0.02480*
%
%ADD26ROUNDEDRECTD26*%
G04:AMPARAMS|DCode=27|XSize=23.62mil|YSize=39.37mil|CornerRadius=5.91mil|HoleSize=0mil|Usage=FLASHONLY|Rotation=0.000|XOffset=0mil|YOffset=0mil|HoleType=Round|Shape=RoundedRectangle|*
%AMROUNDEDRECTD27*
21,1,0.02362,0.02756,0,0,0.0*
21,1,0.01181,0.03937,0,0,0.0*
1,1,0.01181,0.00591,-0.01378*
1,1,0.01181,-0.00591,-0.01378*
1,1,0.01181,-0.00591,0.01378*
1,1,0.01181,0.00591,0.01378*
%
%ADD27ROUNDEDRECTD27*%
%ADD28R,0.03150X0.06693*%
%ADD29R,0.01181X0.05807*%
%ADD30R,0.05807X0.01181*%
%ADD31R,0.04331X0.06299*%
%ADD32R,0.06300X0.05000*%
%ADD33R,0.07480X0.05512*%
%ADD34R,0.04724X0.06693*%
%ADD35R,0.01968X0.03937*%
%ADD36R,0.11811X0.21654*%
%ADD70C,0.01000*%
%ADD71R,0.42677X0.31024*%
%ADD72C,0.01968*%
%ADD73C,0.01500*%
%ADD74C,0.02756*%
%ADD75C,0.03937*%
%ADD76R,0.06496X0.06496*%
%ADD77C,0.06496*%
%ADD78C,0.03969*%
%ADD79R,0.03969X0.03969*%
%ADD80R,0.03969X0.03969*%
%ADD81C,0.05906*%
%ADD82R,0.05906X0.05906*%
%ADD83C,0.31496*%
%ADD84C,0.04055*%
%ADD85C,0.06693*%
%ADD86R,0.06693X0.06693*%
%ADD87C,0.01575*%
G36*
X233504Y151378D02*
Y144134D01*
X232874Y143465D01*
X226667D01*
X225630Y144213D01*
Y151299D01*
X226378Y152047D01*
X232835D01*
X233504Y151378D01*
D02*
G37*
G36*
X109646Y149921D02*
Y143740D01*
X108701Y142795D01*
X100000D01*
X99173Y143622D01*
Y149764D01*
X100000Y150709D01*
X108858D01*
X109646Y149921D01*
D02*
G37*
G36*
X137461Y147559D02*
Y139173D01*
X136752Y138465D01*
X131201D01*
X130374Y139252D01*
Y147638D01*
X131043Y148307D01*
X136713Y148307D01*
X137461Y147559D01*
D02*
G37*
G36*
X170295Y136969D02*
Y130984D01*
X169626Y130315D01*
X163839D01*
X163209Y130945D01*
Y136850D01*
X163839Y137480D01*
X169783Y137480D01*
X170295Y136969D01*
D02*
G37*
G36*
X158224Y134516D02*
Y129791D01*
X157280Y128846D01*
X144799D01*
X144051Y129595D01*
Y134240D01*
X144839Y135028D01*
X157673Y135067D01*
X158224Y134516D01*
D02*
G37*
G36*
X228110Y131614D02*
X228110Y124803D01*
X227047Y123740D01*
X221181D01*
X220118Y124803D01*
Y127717D01*
X224803Y132402D01*
X227323Y132402D01*
X228110Y131614D01*
D02*
G37*
G36*
X185853Y132219D02*
Y124133D01*
X185368Y123649D01*
X178950D01*
X178342Y124257D01*
Y132174D01*
X179029Y132861D01*
X185210D01*
X185853Y132219D01*
D02*
G37*
G36*
X91654Y151102D02*
X91772D01*
Y122953D01*
X88543Y119724D01*
X52008D01*
X48622Y123110D01*
Y151339D01*
X51614Y154331D01*
X88425Y154331D01*
X91654Y151102D01*
D02*
G37*
G36*
X155394Y116341D02*
Y111167D01*
X154331Y110669D01*
Y106299D01*
X154134Y106102D01*
X153386D01*
X153150Y106339D01*
Y110669D01*
X152047Y111196D01*
Y116306D01*
X153150Y116929D01*
X154331D01*
X155394Y116341D01*
D02*
G37*
G36*
X112835Y113386D02*
Y106378D01*
X112087Y105630D01*
X104685D01*
X103898Y106417D01*
Y113386D01*
X104306Y113794D01*
X112087D01*
X112835Y113386D01*
D02*
G37*
G36*
X264606Y119724D02*
X266142Y118189D01*
Y104252D01*
X264291Y102402D01*
X253150D01*
X251654Y103898D01*
Y117992D01*
X253386Y119724D01*
X264606Y119724D01*
D02*
G37*
G36*
X175011Y99606D02*
X179381D01*
X179578Y99410D01*
Y98661D01*
X179342Y98425D01*
X175011D01*
X174484Y97323D01*
X169374D01*
X168751Y98425D01*
Y99606D01*
X169339Y100669D01*
X174514D01*
X175011Y99606D01*
D02*
G37*
G36*
X120472Y97559D02*
Y92047D01*
X119646Y91220D01*
X115000D01*
X114173Y92047D01*
Y97402D01*
X115039Y98268D01*
X119764D01*
X120472Y97559D01*
D02*
G37*
G36*
X156837Y87795D02*
Y86614D01*
X156248Y85551D01*
X151074D01*
X150577Y86614D01*
X149604D01*
Y86614D01*
X146207D01*
X146010Y86811D01*
Y87559D01*
X146246Y87795D01*
X150577D01*
X151104Y88898D01*
X156213D01*
X156837Y87795D01*
D02*
G37*
G36*
X103032Y93504D02*
X103583Y92953D01*
X103583Y83681D01*
X102992Y83091D01*
X101181D01*
X100669Y83602D01*
X100669Y92835D01*
X101339Y93504D01*
X103032Y93504D01*
D02*
G37*
G36*
X72716Y102559D02*
Y80394D01*
X71969Y79646D01*
X67244D01*
X66535Y80354D01*
Y102677D01*
X67087Y103228D01*
X72047D01*
X72716Y102559D01*
D02*
G37*
G36*
X173110Y84176D02*
Y79001D01*
X172047Y78504D01*
Y74134D01*
X171850Y73937D01*
X171102D01*
X170866Y74173D01*
Y78504D01*
X169764Y79031D01*
Y84141D01*
X170866Y84764D01*
X172047D01*
X173110Y84176D01*
D02*
G37*
G36*
X117835Y83780D02*
X118622Y82992D01*
Y68071D01*
X117835Y67283D01*
X113701D01*
X112953Y68032D01*
Y82874D01*
X113858Y83780D01*
X117835Y83780D01*
D02*
G37*
G36*
X119449Y63150D02*
Y57953D01*
X118465Y56968D01*
X105118D01*
X104331Y57756D01*
Y63032D01*
X105039Y63740D01*
X118780Y63819D01*
X119449Y63150D01*
D02*
G37*
G36*
X42559Y64902D02*
X43701Y63760D01*
Y48051D01*
X43740Y48012D01*
X42598Y46870D01*
X36063D01*
X36024Y46831D01*
X34606Y48248D01*
Y63248D01*
X36181Y64902D01*
X42559Y64902D01*
D02*
G37*
G36*
X151752Y48071D02*
X151752Y44055D01*
X150807Y43110D01*
X146122Y43110D01*
X145295Y43937D01*
X145295Y48071D01*
X145886Y48661D01*
X151161D01*
X151752Y48071D01*
D02*
G37*
G36*
X265878Y60168D02*
X267335Y58711D01*
X267335Y53829D01*
X265484Y51979D01*
Y43396D01*
X264421Y42333D01*
X260799D01*
X259854Y43278D01*
Y52136D01*
X258161Y53829D01*
Y58711D01*
X259618Y60168D01*
X265878Y60168D01*
D02*
G37*
G36*
X143071Y52795D02*
Y42638D01*
X142008Y41575D01*
X135787D01*
X134803Y42559D01*
Y52756D01*
X135827Y53780D01*
X142087Y53780D01*
X143071Y52795D01*
D02*
G37*
G36*
X208622Y51890D02*
X209409Y51102D01*
Y41732D01*
X208504Y40827D01*
X201220D01*
X200315Y41732D01*
Y51142D01*
X201063Y51890D01*
X208622Y51890D01*
D02*
G37*
G36*
X173425Y46693D02*
X173425Y40118D01*
X171968Y38661D01*
X168032D01*
X166693Y40446D01*
X166693Y47717D01*
X167559Y48583D01*
X171535D01*
X173425Y46693D01*
D02*
G37*
G36*
X219724Y21457D02*
Y15866D01*
X219094Y15236D01*
Y15079D01*
X213032D01*
X212480Y15630D01*
X212402D01*
Y21457D01*
X212953Y22008D01*
X219173D01*
X219724Y21457D01*
D02*
G37*
D17*
X262677Y46575D02*
D03*
X254803D02*
D03*
X246929D02*
D03*
X239055D02*
D03*
X231181D02*
D03*
X223307D02*
D03*
X215433D02*
D03*
X207559D02*
D03*
Y107205D02*
D03*
X215433D02*
D03*
X223307D02*
D03*
X231181D02*
D03*
X239055D02*
D03*
X246929D02*
D03*
X254803D02*
D03*
D18*
X262677Y106811D02*
D03*
D19*
X179882Y35512D02*
D03*
X187362D02*
D03*
X128937Y109843D02*
D03*
X121457D02*
D03*
D20*
X194921Y92638D02*
D03*
Y85158D02*
D03*
X181417Y48031D02*
D03*
Y55512D02*
D03*
X167008Y131457D02*
D03*
Y123976D02*
D03*
D21*
X182520Y124764D02*
D03*
Y118465D02*
D03*
X155669Y131535D02*
D03*
Y125236D02*
D03*
X145905Y131535D02*
D03*
Y125236D02*
D03*
X170000Y53268D02*
D03*
Y46968D02*
D03*
D22*
X114630Y146850D02*
D03*
X106630Y146850D02*
D03*
X126118Y147047D02*
D03*
X134118Y147047D02*
D03*
X138646Y52362D02*
D03*
X130646Y52362D02*
D03*
X98362Y109843D02*
D03*
X106362Y109843D02*
D03*
D23*
X232441Y126929D02*
D03*
X226142D02*
D03*
X115748Y81890D02*
D03*
X122047D02*
D03*
X98425Y70787D02*
D03*
X104724D02*
D03*
D24*
X229685Y137598D02*
D03*
Y150984D02*
D03*
D25*
X56496Y87795D02*
D03*
X63189D02*
D03*
X69882D02*
D03*
X76575D02*
D03*
X83268D02*
D03*
D26*
X98425Y84075D02*
D03*
X102165D02*
D03*
X105905D02*
D03*
Y93405D02*
D03*
X98425D02*
D03*
D27*
X157874Y45866D02*
D03*
X150394D02*
D03*
X154134Y36417D02*
D03*
D28*
X129134Y94882D02*
D03*
X115748D02*
D03*
D29*
X151772Y106843D02*
D03*
X153740D02*
D03*
X155709D02*
D03*
X157677D02*
D03*
X159646D02*
D03*
X161614D02*
D03*
X163583D02*
D03*
X165551D02*
D03*
X167520D02*
D03*
X169488D02*
D03*
X171457D02*
D03*
X173425D02*
D03*
Y73472D02*
D03*
X171457D02*
D03*
X169488D02*
D03*
X167520D02*
D03*
X165551D02*
D03*
X163583D02*
D03*
X161614D02*
D03*
X159646D02*
D03*
X157677D02*
D03*
X155709D02*
D03*
X153740D02*
D03*
X151772D02*
D03*
D30*
X179283Y100984D02*
D03*
Y99016D02*
D03*
Y97047D02*
D03*
Y95079D02*
D03*
Y93110D02*
D03*
Y91142D02*
D03*
Y89173D02*
D03*
Y87205D02*
D03*
Y85236D02*
D03*
Y83268D02*
D03*
Y81299D02*
D03*
Y79331D02*
D03*
X145913D02*
D03*
Y81299D02*
D03*
Y83268D02*
D03*
Y85236D02*
D03*
Y87205D02*
D03*
Y89173D02*
D03*
Y91142D02*
D03*
Y93110D02*
D03*
Y95079D02*
D03*
Y97047D02*
D03*
Y99016D02*
D03*
Y100984D02*
D03*
D31*
X115748Y70866D02*
D03*
X129134D02*
D03*
D32*
X105905Y52299D02*
D03*
X105905Y60299D02*
D03*
X118110Y60299D02*
D03*
X118110Y52299D02*
D03*
D33*
X38976Y50984D02*
D03*
Y37992D02*
D03*
D34*
X218504Y9646D02*
D03*
X186221D02*
D03*
D35*
X213386Y17323D02*
D03*
X210236D02*
D03*
X207087D02*
D03*
X203937D02*
D03*
X200787D02*
D03*
X197638D02*
D03*
X194488D02*
D03*
X191339D02*
D03*
D36*
X90945Y37992D02*
D03*
X53543D02*
D03*
D70*
X225535Y37835D02*
G03*
X224445Y36744I0J-1091D01*
G01*
X223354Y32220D02*
G03*
X224445Y33311I0J1091D01*
G01*
X222264D02*
G03*
X223354Y32220I1091J0D01*
G01*
X222264Y39079D02*
G03*
X221173Y40170I-1091J0D01*
G01*
D02*
G03*
X220083Y39079I0J-1091D01*
G01*
X218992Y32220D02*
G03*
X220083Y33311I0J1091D01*
G01*
X217902D02*
G03*
X218992Y32220I1091J0D01*
G01*
X217902Y39079D02*
G03*
X216811Y40170I-1091J0D01*
G01*
D02*
G03*
X215721Y39079I0J-1091D01*
G01*
X214630Y32220D02*
G03*
X215721Y33311I0J1091D01*
G01*
X213539D02*
G03*
X214630Y32220I1091J0D01*
G01*
X213539Y39224D02*
G03*
X212449Y40315I-1091J0D01*
G01*
D02*
G03*
X211358Y39224I0J-1091D01*
G01*
X210268Y32220D02*
G03*
X211358Y33311I0J1091D01*
G01*
X209177D02*
G03*
X210268Y32220I1091J0D01*
G01*
X209177Y38449D02*
G03*
X208087Y39540I-1091J0D01*
G01*
D02*
G03*
X206996Y38449I0J-1091D01*
G01*
X206382Y37835D02*
G03*
X206996Y38449I0J614D01*
G01*
X228437Y56602D02*
G03*
X229527Y55512I1091J0D01*
G01*
X228437Y59744D02*
G03*
X227346Y60834I-1091J0D01*
G01*
D02*
G03*
X226256Y59744I0J-1091D01*
G01*
X225165Y53390D02*
G03*
X226256Y54481I0J1091D01*
G01*
X224075D02*
G03*
X225165Y53390I1091J0D01*
G01*
X224075Y59744D02*
G03*
X222984Y60834I-1091J0D01*
G01*
D02*
G03*
X221894Y59744I0J-1091D01*
G01*
X220803Y53366D02*
G03*
X221894Y54457I0J1091D01*
G01*
X219713D02*
G03*
X220803Y53366I1091J0D01*
G01*
X219713Y59744D02*
G03*
X218622Y60834I-1091J0D01*
G01*
D02*
G03*
X217531Y59744I0J-1091D01*
G01*
X216441Y53390D02*
G03*
X217531Y54481I0J1091D01*
G01*
X215350D02*
G03*
X216441Y53390I1091J0D01*
G01*
X215350Y59744D02*
G03*
X214260Y60834I-1091J0D01*
G01*
D02*
G03*
X213169Y59744I0J-1091D01*
G01*
X212079Y53072D02*
G03*
X213169Y54162I0J1091D01*
G01*
X210988D02*
G03*
X212079Y53072I1091J0D01*
G01*
X210988Y59744D02*
G03*
X209898Y60834I-1091J0D01*
G01*
D02*
G03*
X208807Y59744I0J-1091D01*
G01*
X207716Y55512D02*
G03*
X208807Y56602I0J1091D01*
G01*
X231181Y39449D02*
Y46575D01*
X229567Y37835D02*
X231181Y39449D01*
X227835Y37835D02*
X229567D01*
X189685D02*
X205906D01*
X225535D02*
X227835D01*
X224445Y33311D02*
Y36744D01*
X222264Y33311D02*
Y37835D01*
Y39079D01*
X220083Y37835D02*
Y39079D01*
Y33311D02*
Y37835D01*
X217902Y33311D02*
Y37835D01*
Y39079D01*
X215721Y37835D02*
Y39079D01*
Y33311D02*
Y37835D01*
X213539Y33311D02*
Y37835D01*
Y39224D01*
X211358Y37835D02*
Y39224D01*
Y33311D02*
Y37835D01*
X209177Y33311D02*
Y37835D01*
Y38449D01*
X205906Y37835D02*
X206382D01*
X187362Y35512D02*
X189685Y37835D01*
X246929Y46575D02*
Y53071D01*
X244488Y55512D02*
X246929Y53071D01*
X230709Y55512D02*
X244488D01*
X181417D02*
X207716D01*
X229527D02*
X230709D01*
X228437Y56602D02*
Y59744D01*
X226256Y55512D02*
Y59744D01*
Y54481D02*
Y55512D01*
X224075Y54481D02*
Y55512D01*
Y59744D01*
X221894Y55512D02*
Y59744D01*
Y54457D02*
Y55512D01*
X219713Y54457D02*
Y55512D01*
Y59744D01*
X217531Y55512D02*
Y59744D01*
Y54481D02*
Y55512D01*
X215350Y54481D02*
Y55512D01*
Y59744D01*
X213169Y55512D02*
Y59744D01*
Y54162D02*
Y55512D01*
X210988Y54162D02*
Y55512D01*
Y59744D01*
X208807Y56602D02*
Y59744D01*
X254803Y39449D02*
X254842Y39409D01*
X254803Y39449D02*
Y46575D01*
X193425Y121181D02*
X231181D01*
X188953Y116709D02*
X193425Y121181D01*
X239055Y107205D02*
Y115433D01*
X235866Y118622D02*
X239055Y115433D01*
X193504Y118622D02*
X235866D01*
X231181Y107205D02*
Y115709D01*
X179283Y100984D02*
X179291Y100992D01*
Y105591D01*
X237559Y30433D02*
X241535Y34409D01*
X178543Y30433D02*
X237559D01*
X239055Y39409D02*
Y46575D01*
Y39409D02*
X241220Y37244D01*
X266575D01*
X268937Y39606D01*
Y60945D01*
X266850Y63032D02*
X268937Y60945D01*
X198543Y63032D02*
X266850D01*
X179374Y85146D02*
X194921D01*
Y85158D01*
Y66654D02*
Y85146D01*
Y66654D02*
X198543Y63032D01*
X190197Y25827D02*
X194488Y21535D01*
X182126Y25827D02*
X190197D01*
X163134Y35173D02*
X172480Y25827D01*
X185906Y17323D02*
X191339D01*
X164921Y38307D02*
X185906Y17323D01*
X176457Y32520D02*
X178543Y30433D01*
X187323Y35512D02*
Y49252D01*
X184921Y51653D02*
X187323Y49252D01*
X177756Y51653D02*
X184921D01*
X175787Y53622D02*
X177756Y51653D01*
X175787Y53622D02*
Y63701D01*
X185197Y73110D01*
Y79843D01*
X183740Y81299D02*
X185197Y79843D01*
X179283Y81299D02*
X183740D01*
X189291Y139685D02*
X195472Y145866D01*
X177047Y139685D02*
X189291D01*
X173425Y136063D02*
X177047Y139685D01*
X173425Y106843D02*
Y136063D01*
X176457Y32520D02*
Y44842D01*
X170000Y58740D02*
Y60787D01*
X194488Y17323D02*
Y21535D01*
X163134Y35173D02*
Y60898D01*
X164921Y60158D02*
X169488Y64724D01*
X163134Y60898D02*
X167520Y65284D01*
Y73472D01*
X164921Y38307D02*
Y60158D01*
X169488Y64724D02*
Y73472D01*
X170000Y60787D02*
X173425Y64213D01*
Y73472D01*
X176457Y67756D02*
X179283Y70583D01*
Y79331D01*
Y85236D02*
X179374Y85146D01*
X181417Y55512D02*
Y66772D01*
X186984Y72339D01*
Y80583D01*
X184390Y83177D02*
X186984Y80583D01*
X179374Y83177D02*
X184390D01*
X179283Y83268D02*
X179374Y83177D01*
X179283D02*
Y83268D01*
X188953Y113669D02*
Y116709D01*
X190740Y115858D02*
X193504Y118622D01*
X190740Y112929D02*
Y115858D01*
X188126Y110315D02*
X190740Y112929D01*
X188126Y95441D02*
Y110315D01*
X183917Y91232D02*
X188126Y95441D01*
X179374Y91232D02*
X183917D01*
X179283Y91142D02*
X179374Y91232D01*
X186339Y111055D02*
X188953Y113669D01*
X186339Y96181D02*
Y111055D01*
X183268Y93110D02*
X186339Y96181D01*
X179283Y93110D02*
X183268D01*
X145905Y108858D02*
Y125236D01*
Y100992D02*
Y108858D01*
X147921Y106843D01*
X151772D01*
X145905Y100992D02*
X145913Y100984D01*
X135315Y85236D02*
X145913D01*
X129134Y79055D02*
X135315Y85236D01*
X129134Y70866D02*
Y79055D01*
X199724Y140118D02*
X205472Y145866D01*
X192402Y140118D02*
X199724D01*
X187165Y134882D02*
X192402Y140118D01*
X187165Y114409D02*
Y134882D01*
X184528Y111772D02*
X187165Y114409D01*
X184528Y98347D02*
Y111772D01*
X183228Y97047D02*
X184528Y98347D01*
X179283Y97047D02*
X183228D01*
X151772Y51968D02*
X157874Y45866D01*
X151772Y51968D02*
Y73472D01*
X159646Y106843D02*
Y116614D01*
X167008Y123976D01*
X140039Y79331D02*
X145913D01*
X148583Y111260D02*
Y116102D01*
X152126Y119646D01*
X158937D01*
X160748Y121457D01*
Y141614D01*
X157480Y144882D02*
X160748Y141614D01*
X106968Y129331D02*
X114630Y136992D01*
Y146850D01*
X141142Y93110D02*
X145913D01*
X138976Y95276D02*
X141142Y93110D01*
X138976Y95276D02*
Y121260D01*
X130905Y129331D02*
X138976Y121260D01*
X126181Y129331D02*
X130905D01*
X137992Y91142D02*
X145913D01*
X133465Y95669D02*
X137992Y91142D01*
X133465Y95669D02*
Y113386D01*
X131496Y115354D02*
X133465Y113386D01*
X113779Y115354D02*
X131496D01*
X106968Y122165D02*
X113779Y115354D01*
X106968Y122165D02*
Y129331D01*
X126118Y129394D02*
X126181Y129331D01*
X126118Y129394D02*
Y147047D01*
X128937Y95079D02*
X129134Y94882D01*
X128937Y95079D02*
Y109843D01*
X134843Y89173D02*
X145913D01*
X129134Y94882D02*
X134843Y89173D01*
D71*
X69882Y130118D02*
D03*
D72*
X246929Y107205D02*
Y112441D01*
X232441Y126929D02*
X246929Y112441D01*
X232441Y126929D02*
Y134843D01*
X229685Y137598D02*
X232441Y134843D01*
X223740Y137598D02*
X229685D01*
X215472Y145866D02*
X223740Y137598D01*
X194921Y92638D02*
Y101654D01*
X190984Y105591D02*
X194921Y101654D01*
X179291Y105591D02*
Y115236D01*
X182520Y118465D01*
X179882Y35512D02*
X181417Y37047D01*
Y48031D01*
X175281D02*
X181417D01*
X170045Y53268D02*
X175281Y48031D01*
X170000Y53268D02*
X170045D01*
X170000D02*
Y58740D01*
X179055Y118465D02*
X182520D01*
X176535Y120984D02*
X179055Y118465D01*
X176535Y120984D02*
Y135827D01*
X141260Y58740D02*
X148071D01*
X129134Y70866D02*
X141260Y58740D01*
X145905Y125236D02*
X155669D01*
X137441Y153150D02*
X159213D01*
X99213D02*
X137441D01*
X142126Y125236D02*
X145905D01*
X139921Y127441D02*
X142126Y125236D01*
X139921Y127441D02*
Y150669D01*
X137441Y153150D02*
X139921Y150669D01*
X208189Y153150D02*
X215472Y145866D01*
X159213Y153150D02*
X208189D01*
X159213D02*
X167480Y144882D01*
X94095Y148031D02*
X99213Y153150D01*
X94095Y114110D02*
Y148031D01*
Y114110D02*
X98362Y109843D01*
X98425Y104331D02*
Y109780D01*
Y93405D02*
Y104331D01*
X100787Y101969D01*
X106299D01*
X98362Y109843D02*
X98425Y109780D01*
X122047Y77953D02*
X129134Y70866D01*
X122047Y77953D02*
Y81890D01*
X106299Y101969D02*
X113583D01*
X122047Y81890D02*
Y85433D01*
X120079Y87402D02*
X122047Y85433D01*
X114173Y87402D02*
X120079D01*
X111024Y90551D02*
X114173Y87402D01*
X111024Y90551D02*
Y97244D01*
X106299Y101969D02*
X111024Y97244D01*
X113583Y101969D02*
X121457Y109843D01*
D73*
X171063Y3937D02*
X202756D01*
X157047Y125236D02*
X157087Y125197D01*
X207087Y8268D02*
Y17323D01*
X202756Y3937D02*
X207087Y8268D01*
X159252Y15748D02*
X171063Y3937D01*
D74*
X76575Y77362D02*
X98425Y55512D01*
X76575Y77362D02*
Y87795D01*
X169095Y15748D02*
Y21457D01*
X154134Y36417D02*
X169095Y21457D01*
X142996Y15748D02*
X159252D01*
X123622Y35122D02*
X142996Y15748D01*
X120752Y37992D02*
X123622Y35122D01*
X99410Y37992D02*
X120752D01*
X105905Y52299D02*
X130583D01*
X101638D02*
X105905D01*
X98425Y55512D02*
X101638Y52299D01*
X98425Y55512D02*
Y70787D01*
X130583Y52299D02*
X130646Y52362D01*
X105905Y44488D02*
Y52299D01*
X99410Y37992D02*
X105905Y44488D01*
X90945Y37992D02*
X99410D01*
X105905Y71969D02*
Y84075D01*
X104724Y70787D02*
X105905Y71969D01*
X98425Y70787D02*
X98425Y70787D01*
X98425Y70787D02*
Y84075D01*
D75*
X38976Y37992D02*
X53543D01*
X63189Y47638D01*
Y87795D01*
X46772Y97520D02*
X56496Y87795D01*
X34500Y97520D02*
X46772D01*
X16500Y62020D02*
Y79520D01*
X34500Y97520D01*
D76*
X167480Y144882D02*
D03*
X159252Y15748D02*
D03*
D77*
X157480Y144882D02*
D03*
X147480D02*
D03*
X169095Y15748D02*
D03*
D78*
X11500Y97520D02*
D03*
X123622Y12122D02*
D03*
D79*
X34500Y97520D02*
D03*
D80*
X123622Y35122D02*
D03*
D81*
X185472Y145866D02*
D03*
X195472D02*
D03*
X205472D02*
D03*
D82*
X215472D02*
D03*
D83*
X252362Y18307D02*
D03*
X18500Y139020D02*
D03*
Y18232D02*
D03*
X252480Y139173D02*
D03*
D84*
X126181Y129331D02*
D03*
X106968D02*
D03*
D85*
X16500Y47020D02*
D03*
D86*
Y62020D02*
D03*
D87*
X171535Y41181D02*
D03*
X168425Y41260D02*
D03*
X190984Y105591D02*
D03*
X179291D02*
D03*
X231181Y115709D02*
D03*
X217362Y16772D02*
D03*
Y20157D02*
D03*
X173189Y98976D02*
D03*
X170276Y99016D02*
D03*
X171496Y80158D02*
D03*
X171457Y83110D02*
D03*
X155079Y87283D02*
D03*
X152244Y87244D02*
D03*
X153740Y112480D02*
D03*
X153701Y115394D02*
D03*
X226102Y130945D02*
D03*
X221693Y126339D02*
D03*
X227913Y145945D02*
D03*
X231653Y146024D02*
D03*
X183858Y130551D02*
D03*
X180354Y130630D02*
D03*
X168465Y135787D02*
D03*
X165079D02*
D03*
X135394Y140669D02*
D03*
X132205Y140709D02*
D03*
X101024Y144882D02*
D03*
Y148740D02*
D03*
X102205Y88976D02*
D03*
Y91811D02*
D03*
X119016Y93150D02*
D03*
X118976Y96614D02*
D03*
X111102Y107677D02*
D03*
X111063Y111693D02*
D03*
X150669Y130315D02*
D03*
Y133622D02*
D03*
X176535Y135827D02*
D03*
X39094Y57874D02*
D03*
X39173Y62441D02*
D03*
X202362Y43937D02*
D03*
X202441Y49331D02*
D03*
X264488Y58228D02*
D03*
X260630Y58268D02*
D03*
X261024Y116614D02*
D03*
X255669Y116654D02*
D03*
X117244Y76260D02*
D03*
X114409Y77598D02*
D03*
X111850Y58819D02*
D03*
X111890Y62244D02*
D03*
X140512Y45079D02*
D03*
X136772Y45118D02*
D03*
X176457Y44842D02*
D03*
X147126Y44528D02*
D03*
Y47323D02*
D03*
X241535Y34409D02*
D03*
X254842Y39409D02*
D03*
X87559Y150709D02*
D03*
X82047Y150748D02*
D03*
X76181Y150827D02*
D03*
X70197D02*
D03*
X64803D02*
D03*
X58583D02*
D03*
X52244Y150748D02*
D03*
X70866Y98858D02*
D03*
X68268Y101024D02*
D03*
X170000Y58740D02*
D03*
X148071D02*
D03*
X182126Y25827D02*
D03*
X172480D02*
D03*
X176457Y67756D02*
D03*
X231181Y121181D02*
D03*
X140039Y79331D02*
D03*
X148583Y111260D02*
D03*
M02*
