G04*
G04 #@! TF.GenerationSoftware,Altium Limited,Altium Designer,18.0.7 (293)*
G04*
G04 Layer_Physical_Order=2*
G04 Layer_Color=16711680*
%FSLAX25Y25*%
%MOIN*%
G70*
G01*
G75*
%ADD70C,0.01000*%
%ADD72C,0.01968*%
%ADD76R,0.06496X0.06496*%
%ADD77C,0.06496*%
%ADD78C,0.03969*%
%ADD79R,0.03969X0.03969*%
%ADD80R,0.03969X0.03969*%
%ADD81C,0.05906*%
%ADD82R,0.05906X0.05906*%
%ADD83C,0.31496*%
%ADD84C,0.04055*%
%ADD85C,0.06693*%
%ADD86R,0.06693X0.06693*%
%ADD87C,0.01575*%
G36*
X270866Y157166D02*
Y39D01*
X0D01*
Y157480D01*
X270513Y157520D01*
X270866Y157166D01*
D02*
G37*
%LPC*%
G36*
X76681Y152550D02*
Y151327D01*
X77904D01*
X77865Y151524D01*
X77470Y152115D01*
X76878Y152510D01*
X76681Y152550D01*
D02*
G37*
G36*
X75681D02*
X75484Y152510D01*
X74892Y152115D01*
X74497Y151524D01*
X74458Y151327D01*
X75681D01*
Y152550D01*
D02*
G37*
G36*
X70697D02*
Y151327D01*
X71920D01*
X71881Y151524D01*
X71486Y152115D01*
X70894Y152510D01*
X70697Y152550D01*
D02*
G37*
G36*
X69697D02*
X69499Y152510D01*
X68908Y152115D01*
X68513Y151524D01*
X68474Y151327D01*
X69697D01*
Y152550D01*
D02*
G37*
G36*
X65303D02*
Y151327D01*
X66526D01*
X66487Y151524D01*
X66092Y152115D01*
X65501Y152510D01*
X65303Y152550D01*
D02*
G37*
G36*
X64303D02*
X64106Y152510D01*
X63515Y152115D01*
X63119Y151524D01*
X63080Y151327D01*
X64303D01*
Y152550D01*
D02*
G37*
G36*
X59083D02*
Y151327D01*
X60306D01*
X60266Y151524D01*
X59871Y152115D01*
X59280Y152510D01*
X59083Y152550D01*
D02*
G37*
G36*
X58083D02*
X57885Y152510D01*
X57294Y152115D01*
X56899Y151524D01*
X56860Y151327D01*
X58083D01*
Y152550D01*
D02*
G37*
G36*
X82547Y152471D02*
Y151248D01*
X83770D01*
X83731Y151445D01*
X83336Y152037D01*
X82745Y152432D01*
X82547Y152471D01*
D02*
G37*
G36*
X81547D02*
X81350Y152432D01*
X80759Y152037D01*
X80364Y151445D01*
X80324Y151248D01*
X81547D01*
Y152471D01*
D02*
G37*
G36*
X52744D02*
Y151248D01*
X53967D01*
X53928Y151445D01*
X53533Y152037D01*
X52942Y152432D01*
X52744Y152471D01*
D02*
G37*
G36*
X51744D02*
X51547Y152432D01*
X50955Y152037D01*
X50560Y151445D01*
X50521Y151248D01*
X51744D01*
Y152471D01*
D02*
G37*
G36*
X88059Y152432D02*
Y151209D01*
X89282D01*
X89243Y151406D01*
X88848Y151997D01*
X88257Y152392D01*
X88059Y152432D01*
D02*
G37*
G36*
X87059D02*
X86862Y152392D01*
X86270Y151997D01*
X85875Y151406D01*
X85836Y151209D01*
X87059D01*
Y152432D01*
D02*
G37*
G36*
X101524Y150463D02*
Y149240D01*
X102747D01*
X102707Y149438D01*
X102312Y150029D01*
X101721Y150424D01*
X101524Y150463D01*
D02*
G37*
G36*
X100524D02*
X100326Y150424D01*
X99735Y150029D01*
X99340Y149438D01*
X99301Y149240D01*
X100524D01*
Y150463D01*
D02*
G37*
G36*
X77904Y150327D02*
X76681D01*
Y149104D01*
X76878Y149143D01*
X77470Y149538D01*
X77865Y150129D01*
X77904Y150327D01*
D02*
G37*
G36*
X75681D02*
X74458D01*
X74497Y150129D01*
X74892Y149538D01*
X75484Y149143D01*
X75681Y149104D01*
Y150327D01*
D02*
G37*
G36*
X71920D02*
X70697D01*
Y149104D01*
X70894Y149143D01*
X71486Y149538D01*
X71881Y150129D01*
X71920Y150327D01*
D02*
G37*
G36*
X69697D02*
X68474D01*
X68513Y150129D01*
X68908Y149538D01*
X69499Y149143D01*
X69697Y149104D01*
Y150327D01*
D02*
G37*
G36*
X66526D02*
X65303D01*
Y149104D01*
X65501Y149143D01*
X66092Y149538D01*
X66487Y150129D01*
X66526Y150327D01*
D02*
G37*
G36*
X64303D02*
X63080D01*
X63119Y150129D01*
X63515Y149538D01*
X64106Y149143D01*
X64303Y149104D01*
Y150327D01*
D02*
G37*
G36*
X60306D02*
X59083D01*
Y149104D01*
X59280Y149143D01*
X59871Y149538D01*
X60266Y150129D01*
X60306Y150327D01*
D02*
G37*
G36*
X58083D02*
X56860D01*
X56899Y150129D01*
X57294Y149538D01*
X57885Y149143D01*
X58083Y149104D01*
Y150327D01*
D02*
G37*
G36*
X83770Y150248D02*
X82547D01*
Y149025D01*
X82745Y149064D01*
X83336Y149459D01*
X83731Y150051D01*
X83770Y150248D01*
D02*
G37*
G36*
X81547D02*
X80324D01*
X80364Y150051D01*
X80759Y149459D01*
X81350Y149064D01*
X81547Y149025D01*
Y150248D01*
D02*
G37*
G36*
X53967D02*
X52744D01*
Y149025D01*
X52942Y149064D01*
X53533Y149459D01*
X53928Y150051D01*
X53967Y150248D01*
D02*
G37*
G36*
X51744D02*
X50521D01*
X50560Y150051D01*
X50955Y149459D01*
X51547Y149064D01*
X51744Y149025D01*
Y150248D01*
D02*
G37*
G36*
X89282Y150209D02*
X88059D01*
Y148986D01*
X88257Y149025D01*
X88848Y149420D01*
X89243Y150011D01*
X89282Y150209D01*
D02*
G37*
G36*
X87059D02*
X85836D01*
X85875Y150011D01*
X86270Y149420D01*
X86862Y149025D01*
X87059Y148986D01*
Y150209D01*
D02*
G37*
G36*
X231153Y147747D02*
X230956Y147707D01*
X230365Y147312D01*
X230035Y146818D01*
X230029Y146816D01*
X229648Y146785D01*
X229479Y146818D01*
X229202Y147233D01*
X228611Y147629D01*
X228413Y147668D01*
Y145945D01*
Y144222D01*
X228611Y144261D01*
X229202Y144656D01*
X229532Y145150D01*
X229538Y145153D01*
X229919Y145184D01*
X230087Y145150D01*
X230365Y144735D01*
X230956Y144340D01*
X231153Y144301D01*
Y146024D01*
Y147747D01*
D02*
G37*
G36*
X232154D02*
Y146524D01*
X233377D01*
X233337Y146721D01*
X232942Y147312D01*
X232351Y147707D01*
X232154Y147747D01*
D02*
G37*
G36*
X227413Y147668D02*
X227216Y147629D01*
X226625Y147233D01*
X226230Y146642D01*
X226190Y146445D01*
X227413D01*
Y147668D01*
D02*
G37*
G36*
X185972Y149787D02*
Y146366D01*
X189393D01*
X189323Y146898D01*
X188925Y147860D01*
X188292Y148685D01*
X187466Y149319D01*
X186504Y149717D01*
X185972Y149787D01*
D02*
G37*
G36*
X184972D02*
X184441Y149717D01*
X183479Y149319D01*
X182653Y148685D01*
X182020Y147860D01*
X181621Y146898D01*
X181551Y146366D01*
X184972D01*
Y149787D01*
D02*
G37*
G36*
X102747Y148240D02*
X99301D01*
X99340Y148043D01*
X99735Y147451D01*
X100304Y147071D01*
X100326Y146920D01*
Y146702D01*
X100304Y146551D01*
X99735Y146170D01*
X99340Y145579D01*
X99301Y145382D01*
X102747D01*
X102707Y145579D01*
X102312Y146170D01*
X101743Y146551D01*
X101721Y146702D01*
Y146920D01*
X101743Y147071D01*
X102312Y147451D01*
X102707Y148043D01*
X102747Y148240D01*
D02*
G37*
G36*
X147980Y149101D02*
Y145382D01*
X151699D01*
X151619Y145991D01*
X151191Y147024D01*
X150510Y147912D01*
X149623Y148592D01*
X148589Y149021D01*
X147980Y149101D01*
D02*
G37*
G36*
X146980Y149101D02*
X146371Y149021D01*
X145338Y148592D01*
X144451Y147912D01*
X143770Y147024D01*
X143342Y145991D01*
X143261Y145382D01*
X146980D01*
Y149101D01*
D02*
G37*
G36*
X233377Y145524D02*
X232154D01*
Y144301D01*
X232351Y144340D01*
X232942Y144735D01*
X233337Y145326D01*
X233377Y145524D01*
D02*
G37*
G36*
X227413Y145445D02*
X226190D01*
X226230Y145247D01*
X226625Y144656D01*
X227216Y144261D01*
X227413Y144222D01*
Y145445D01*
D02*
G37*
G36*
X102747Y144382D02*
X101524D01*
Y143159D01*
X101721Y143198D01*
X102312Y143593D01*
X102707Y144185D01*
X102747Y144382D01*
D02*
G37*
G36*
X100524D02*
X99301D01*
X99340Y144185D01*
X99735Y143593D01*
X100326Y143198D01*
X100524Y143159D01*
Y144382D01*
D02*
G37*
G36*
X219213Y149606D02*
X211732D01*
Y142126D01*
X219213D01*
Y149606D01*
D02*
G37*
G36*
X205472Y149639D02*
X204496Y149510D01*
X203586Y149133D01*
X202805Y148534D01*
X202205Y147752D01*
X201829Y146843D01*
X201700Y145866D01*
X201829Y144890D01*
X202205Y143980D01*
X202805Y143199D01*
X203586Y142599D01*
X204496Y142222D01*
X205472Y142094D01*
X206449Y142222D01*
X207359Y142599D01*
X208140Y143199D01*
X208739Y143980D01*
X209116Y144890D01*
X209245Y145866D01*
X209116Y146843D01*
X208739Y147752D01*
X208140Y148534D01*
X207359Y149133D01*
X206449Y149510D01*
X205472Y149639D01*
D02*
G37*
G36*
X195472D02*
X194496Y149510D01*
X193586Y149133D01*
X192805Y148534D01*
X192205Y147752D01*
X191829Y146843D01*
X191700Y145866D01*
X191829Y144890D01*
X192205Y143980D01*
X192805Y143199D01*
X193586Y142599D01*
X194496Y142222D01*
X195472Y142094D01*
X196449Y142222D01*
X197359Y142599D01*
X198140Y143199D01*
X198740Y143980D01*
X199116Y144890D01*
X199245Y145866D01*
X199116Y146843D01*
X198740Y147752D01*
X198140Y148534D01*
X197359Y149133D01*
X196449Y149510D01*
X195472Y149639D01*
D02*
G37*
G36*
X189393Y145366D02*
X185972D01*
Y141945D01*
X186504Y142015D01*
X187466Y142413D01*
X188292Y143047D01*
X188925Y143873D01*
X189323Y144834D01*
X189393Y145366D01*
D02*
G37*
G36*
X184972D02*
X181551D01*
X181621Y144834D01*
X182020Y143873D01*
X182653Y143047D01*
X183479Y142413D01*
X184441Y142015D01*
X184972Y141945D01*
Y145366D01*
D02*
G37*
G36*
X131705Y142432D02*
X131507Y142392D01*
X130916Y141997D01*
X130521Y141406D01*
X130482Y141209D01*
X131705D01*
Y142432D01*
D02*
G37*
G36*
X135894Y142392D02*
Y141169D01*
X137117D01*
X137077Y141367D01*
X136682Y141958D01*
X136091Y142353D01*
X135894Y142392D01*
D02*
G37*
G36*
X157480Y148952D02*
X156427Y148813D01*
X155445Y148407D01*
X154602Y147760D01*
X153955Y146917D01*
X153549Y145935D01*
X153410Y144882D01*
X153549Y143828D01*
X153955Y142847D01*
X154602Y142004D01*
X155445Y141357D01*
X156427Y140950D01*
X157480Y140812D01*
X158534Y140950D01*
X159515Y141357D01*
X160358Y142004D01*
X161005Y142847D01*
X161412Y143828D01*
X161551Y144882D01*
X161412Y145935D01*
X161005Y146917D01*
X160358Y147760D01*
X159515Y148407D01*
X158534Y148813D01*
X157480Y148952D01*
D02*
G37*
G36*
X151699Y144382D02*
X147980D01*
Y140663D01*
X148589Y140743D01*
X149623Y141171D01*
X150510Y141852D01*
X151191Y142739D01*
X151619Y143773D01*
X151699Y144382D01*
D02*
G37*
G36*
X146980D02*
X143261D01*
X143342Y143773D01*
X143770Y142739D01*
X144451Y141852D01*
X145338Y141171D01*
X146371Y140743D01*
X146980Y140663D01*
Y144382D01*
D02*
G37*
G36*
X252980Y155924D02*
Y139673D01*
X269232D01*
X269121Y141364D01*
X268692Y143517D01*
X267987Y145596D01*
X267016Y147565D01*
X265796Y149391D01*
X264348Y151041D01*
X262698Y152489D01*
X260872Y153709D01*
X258903Y154680D01*
X256824Y155385D01*
X254671Y155814D01*
X252980Y155924D01*
D02*
G37*
G36*
X251980D02*
X250290Y155814D01*
X248136Y155385D01*
X246057Y154680D01*
X244088Y153709D01*
X242263Y152489D01*
X240612Y151041D01*
X239165Y149391D01*
X237945Y147565D01*
X236974Y145596D01*
X236268Y143517D01*
X235840Y141364D01*
X235729Y139673D01*
X251980D01*
Y155924D01*
D02*
G37*
G36*
X19000Y155771D02*
Y139520D01*
X35251D01*
X35140Y141210D01*
X34712Y143364D01*
X34006Y145443D01*
X33035Y147412D01*
X31816Y149237D01*
X30368Y150888D01*
X28717Y152335D01*
X26892Y153555D01*
X24923Y154526D01*
X22844Y155232D01*
X20691Y155660D01*
X19000Y155771D01*
D02*
G37*
G36*
X18000D02*
X16309Y155660D01*
X14156Y155232D01*
X12077Y154526D01*
X10108Y153555D01*
X8283Y152335D01*
X6632Y150888D01*
X5184Y149237D01*
X3965Y147412D01*
X2994Y145443D01*
X2288Y143364D01*
X1860Y141210D01*
X1749Y139520D01*
X18000D01*
Y155771D01*
D02*
G37*
G36*
X131705Y140209D02*
X130482D01*
X130521Y140011D01*
X130916Y139420D01*
X131507Y139025D01*
X131705Y138986D01*
Y140209D01*
D02*
G37*
G36*
X137117Y140169D02*
X135894D01*
Y138946D01*
X136091Y138986D01*
X136682Y139381D01*
X137077Y139972D01*
X137117Y140169D01*
D02*
G37*
G36*
X132705Y142432D02*
Y140709D01*
Y138986D01*
X132902Y139025D01*
X133493Y139420D01*
X133536Y139484D01*
X134036D01*
X134105Y139381D01*
X134696Y138986D01*
X134894Y138946D01*
Y140669D01*
Y142392D01*
X134696Y142353D01*
X134105Y141958D01*
X134062Y141894D01*
X133562D01*
X133493Y141997D01*
X132902Y142392D01*
X132705Y142432D01*
D02*
G37*
G36*
X167965Y137510D02*
X167767Y137471D01*
X167176Y137076D01*
X167072Y136921D01*
X166471D01*
X166367Y137076D01*
X165776Y137471D01*
X165579Y137510D01*
Y135787D01*
Y134064D01*
X165776Y134104D01*
X166367Y134499D01*
X166471Y134654D01*
X167072D01*
X167176Y134499D01*
X167767Y134104D01*
X167965Y134064D01*
Y135787D01*
Y137510D01*
D02*
G37*
G36*
X168965D02*
Y136287D01*
X170187D01*
X170148Y136485D01*
X169753Y137076D01*
X169162Y137471D01*
X168965Y137510D01*
D02*
G37*
G36*
X164579D02*
X164381Y137471D01*
X163790Y137076D01*
X163395Y136485D01*
X163356Y136287D01*
X164579D01*
Y137510D01*
D02*
G37*
G36*
X151169Y135345D02*
Y134122D01*
X152392D01*
X152353Y134319D01*
X151958Y134911D01*
X151367Y135306D01*
X151169Y135345D01*
D02*
G37*
G36*
X150169D02*
X149972Y135306D01*
X149381Y134911D01*
X148986Y134319D01*
X148946Y134122D01*
X150169D01*
Y135345D01*
D02*
G37*
G36*
X170187Y135287D02*
X168965D01*
Y134064D01*
X169162Y134104D01*
X169753Y134499D01*
X170148Y135090D01*
X170187Y135287D01*
D02*
G37*
G36*
X164579D02*
X163356D01*
X163395Y135090D01*
X163790Y134499D01*
X164381Y134104D01*
X164579Y134064D01*
Y135287D01*
D02*
G37*
G36*
X171516Y148917D02*
X163445D01*
Y140847D01*
X168961D01*
X175258Y134549D01*
X175844Y134158D01*
X176535Y134020D01*
X177227Y134158D01*
X177813Y134549D01*
X178204Y135135D01*
X178342Y135827D01*
X178204Y136518D01*
X177813Y137104D01*
X171516Y143401D01*
Y148917D01*
D02*
G37*
G36*
X226602Y132668D02*
Y131445D01*
X227825D01*
X227786Y131642D01*
X227391Y132234D01*
X226800Y132629D01*
X226602Y132668D01*
D02*
G37*
G36*
X225602D02*
X225405Y132629D01*
X224814Y132234D01*
X224419Y131642D01*
X224379Y131445D01*
X225602D01*
Y132668D01*
D02*
G37*
G36*
X179854Y132353D02*
X179657Y132314D01*
X179066Y131919D01*
X178671Y131327D01*
X178631Y131130D01*
X179854D01*
Y132353D01*
D02*
G37*
G36*
X184358Y132274D02*
Y131051D01*
X185581D01*
X185542Y131249D01*
X185147Y131840D01*
X184556Y132235D01*
X184358Y132274D01*
D02*
G37*
G36*
X152392Y133122D02*
X148946D01*
X148986Y132925D01*
X149381Y132333D01*
X149553Y132219D01*
Y131719D01*
X149381Y131604D01*
X148986Y131012D01*
X148946Y130815D01*
X152392D01*
X152353Y131012D01*
X151958Y131604D01*
X151786Y131719D01*
Y132219D01*
X151958Y132333D01*
X152353Y132925D01*
X152392Y133122D01*
D02*
G37*
G36*
X227825Y130445D02*
X226602D01*
Y129222D01*
X226800Y129261D01*
X227391Y129656D01*
X227786Y130247D01*
X227825Y130445D01*
D02*
G37*
G36*
X225602D02*
X224379D01*
X224419Y130247D01*
X224814Y129656D01*
X225405Y129261D01*
X225602Y129222D01*
Y130445D01*
D02*
G37*
G36*
X179854Y130130D02*
X178631D01*
X178671Y129932D01*
X179066Y129341D01*
X179657Y128946D01*
X179854Y128907D01*
Y130130D01*
D02*
G37*
G36*
X185581Y130051D02*
X184358D01*
Y128828D01*
X184556Y128867D01*
X185147Y129262D01*
X185542Y129854D01*
X185581Y130051D01*
D02*
G37*
G36*
X180854Y132353D02*
Y130630D01*
Y128907D01*
X181052Y128946D01*
X181643Y129341D01*
X181779Y129545D01*
X182381D01*
X182570Y129262D01*
X183161Y128867D01*
X183358Y128828D01*
Y130551D01*
Y132274D01*
X183161Y132235D01*
X182570Y131840D01*
X182433Y131636D01*
X181832D01*
X181643Y131919D01*
X181052Y132314D01*
X180854Y132353D01*
D02*
G37*
G36*
X152392Y129815D02*
X151169D01*
Y128592D01*
X151367Y128631D01*
X151958Y129026D01*
X152353Y129618D01*
X152392Y129815D01*
D02*
G37*
G36*
X150169D02*
X148946D01*
X148986Y129618D01*
X149381Y129026D01*
X149972Y128631D01*
X150169Y128592D01*
Y129815D01*
D02*
G37*
G36*
X222193Y128062D02*
Y126839D01*
X223416D01*
X223377Y127036D01*
X222982Y127627D01*
X222390Y128022D01*
X222193Y128062D01*
D02*
G37*
G36*
X221193D02*
X220995Y128022D01*
X220404Y127627D01*
X220009Y127036D01*
X219970Y126839D01*
X221193D01*
Y128062D01*
D02*
G37*
G36*
X126181Y132170D02*
X125446Y132073D01*
X124761Y131790D01*
X124173Y131338D01*
X123722Y130750D01*
X123439Y130066D01*
X123342Y129331D01*
X123439Y128596D01*
X123722Y127911D01*
X124173Y127323D01*
X124761Y126872D01*
X125446Y126588D01*
X126181Y126491D01*
X126916Y126588D01*
X127601Y126872D01*
X128189Y127323D01*
X128640Y127911D01*
X128924Y128596D01*
X129020Y129331D01*
X128924Y130066D01*
X128640Y130750D01*
X128189Y131338D01*
X127601Y131790D01*
X126916Y132073D01*
X126181Y132170D01*
D02*
G37*
G36*
X106968D02*
X106234Y132073D01*
X105549Y131790D01*
X104961Y131338D01*
X104510Y130750D01*
X104226Y130066D01*
X104129Y129331D01*
X104226Y128596D01*
X104510Y127911D01*
X104961Y127323D01*
X105549Y126872D01*
X106234Y126588D01*
X106968Y126491D01*
X107703Y126588D01*
X108388Y126872D01*
X108976Y127323D01*
X109427Y127911D01*
X109711Y128596D01*
X109808Y129331D01*
X109711Y130066D01*
X109427Y130750D01*
X108976Y131338D01*
X108388Y131790D01*
X107703Y132073D01*
X106968Y132170D01*
D02*
G37*
G36*
X223416Y125839D02*
X222193D01*
Y124616D01*
X222390Y124655D01*
X222982Y125050D01*
X223377Y125641D01*
X223416Y125839D01*
D02*
G37*
G36*
X221193D02*
X219970D01*
X220009Y125641D01*
X220404Y125050D01*
X220995Y124655D01*
X221193Y124616D01*
Y125839D01*
D02*
G37*
G36*
X269232Y138673D02*
X252980D01*
Y122422D01*
X254671Y122533D01*
X256824Y122961D01*
X258903Y123667D01*
X260872Y124638D01*
X262698Y125858D01*
X264348Y127305D01*
X265796Y128956D01*
X267016Y130781D01*
X267987Y132750D01*
X268692Y134829D01*
X269121Y136983D01*
X269232Y138673D01*
D02*
G37*
G36*
X251980D02*
X235729D01*
X235840Y136983D01*
X236268Y134829D01*
X236974Y132750D01*
X237945Y130781D01*
X239165Y128956D01*
X240612Y127305D01*
X242263Y125858D01*
X244088Y124638D01*
X246057Y123667D01*
X248136Y122961D01*
X250290Y122533D01*
X251980Y122422D01*
Y138673D01*
D02*
G37*
G36*
X35251Y138520D02*
X19000D01*
Y122268D01*
X20691Y122379D01*
X22844Y122808D01*
X24923Y123513D01*
X26892Y124484D01*
X28717Y125704D01*
X30368Y127152D01*
X31816Y128802D01*
X33035Y130628D01*
X34006Y132597D01*
X34712Y134676D01*
X35140Y136829D01*
X35251Y138520D01*
D02*
G37*
G36*
X18000D02*
X1749D01*
X1860Y136829D01*
X2288Y134676D01*
X2994Y132597D01*
X3965Y130628D01*
X5184Y128802D01*
X6632Y127152D01*
X8283Y125704D01*
X10108Y124484D01*
X12077Y123513D01*
X14156Y122808D01*
X16309Y122379D01*
X18000Y122268D01*
Y138520D01*
D02*
G37*
G36*
X256169Y118377D02*
Y117154D01*
X257392D01*
X257353Y117351D01*
X256958Y117942D01*
X256367Y118337D01*
X256169Y118377D01*
D02*
G37*
G36*
X255169D02*
X254972Y118337D01*
X254381Y117942D01*
X253986Y117351D01*
X253946Y117154D01*
X255169D01*
Y118377D01*
D02*
G37*
G36*
X261524Y118337D02*
Y117114D01*
X262747D01*
X262707Y117312D01*
X262312Y117903D01*
X261721Y118298D01*
X261524Y118337D01*
D02*
G37*
G36*
X260524D02*
X260326Y118298D01*
X259735Y117903D01*
X259340Y117312D01*
X259301Y117114D01*
X260524D01*
Y118337D01*
D02*
G37*
G36*
X154201Y117117D02*
Y115894D01*
X155424D01*
X155385Y116091D01*
X154989Y116682D01*
X154398Y117077D01*
X154201Y117117D01*
D02*
G37*
G36*
X153201D02*
X153003Y117077D01*
X152412Y116682D01*
X152017Y116091D01*
X151978Y115894D01*
X153201D01*
Y117117D01*
D02*
G37*
G36*
X257392Y116154D02*
X256169D01*
Y114931D01*
X256367Y114970D01*
X256958Y115365D01*
X257353Y115956D01*
X257392Y116154D01*
D02*
G37*
G36*
X255169D02*
X253946D01*
X253986Y115956D01*
X254381Y115365D01*
X254972Y114970D01*
X255169Y114931D01*
Y116154D01*
D02*
G37*
G36*
X262747Y116114D02*
X261524D01*
Y114891D01*
X261721Y114930D01*
X262312Y115325D01*
X262707Y115917D01*
X262747Y116114D01*
D02*
G37*
G36*
X260524D02*
X259301D01*
X259340Y115917D01*
X259735Y115325D01*
X260326Y114930D01*
X260524Y114891D01*
Y116114D01*
D02*
G37*
G36*
X231181Y122787D02*
X230567Y122664D01*
X230046Y122317D01*
X229698Y121796D01*
X229575Y121181D01*
X229698Y120567D01*
X229869Y120311D01*
Y116579D01*
X229698Y116323D01*
X229575Y115709D01*
X229698Y115094D01*
X230046Y114573D01*
X230567Y114225D01*
X231181Y114103D01*
X231796Y114225D01*
X232316Y114573D01*
X232664Y115094D01*
X232787Y115709D01*
X232664Y116323D01*
X232494Y116579D01*
Y120311D01*
X232664Y120567D01*
X232787Y121181D01*
X232664Y121796D01*
X232316Y122317D01*
X231796Y122664D01*
X231181Y122787D01*
D02*
G37*
G36*
X155424Y114894D02*
X151978D01*
X152017Y114696D01*
X152302Y114270D01*
X152452Y113769D01*
X152057Y113178D01*
X152017Y112980D01*
X155463D01*
X155424Y113178D01*
X155139Y113604D01*
X154989Y114105D01*
X155385Y114696D01*
X155424Y114894D01*
D02*
G37*
G36*
X111563Y113416D02*
Y112193D01*
X112786D01*
X112747Y112390D01*
X112352Y112982D01*
X111760Y113377D01*
X111563Y113416D01*
D02*
G37*
G36*
X110563D02*
X110366Y113377D01*
X109774Y112982D01*
X109379Y112390D01*
X109340Y112193D01*
X110563D01*
Y113416D01*
D02*
G37*
G36*
X155463Y111980D02*
X154240D01*
Y110757D01*
X154438Y110797D01*
X155029Y111192D01*
X155424Y111783D01*
X155463Y111980D01*
D02*
G37*
G36*
X153240D02*
X152017D01*
X152057Y111783D01*
X152452Y111192D01*
X153043Y110797D01*
X153240Y110757D01*
Y111980D01*
D02*
G37*
G36*
X112786Y111193D02*
X109340D01*
X109379Y110995D01*
X109774Y110404D01*
X110366Y110009D01*
X110733Y109936D01*
Y109426D01*
X110405Y109361D01*
X109814Y108966D01*
X109419Y108375D01*
X109379Y108177D01*
X112825D01*
X112786Y108375D01*
X112391Y108966D01*
X111800Y109361D01*
X111432Y109434D01*
Y109944D01*
X111760Y110009D01*
X112352Y110404D01*
X112747Y110995D01*
X112786Y111193D01*
D02*
G37*
G36*
X112825Y107177D02*
X111602D01*
Y105954D01*
X111800Y105993D01*
X112391Y106388D01*
X112786Y106980D01*
X112825Y107177D01*
D02*
G37*
G36*
X110602D02*
X109379D01*
X109419Y106980D01*
X109814Y106388D01*
X110405Y105993D01*
X110602Y105954D01*
Y107177D01*
D02*
G37*
G36*
X190984Y107397D02*
X179291D01*
X178600Y107259D01*
X178014Y106868D01*
X177622Y106282D01*
X177485Y105591D01*
X177622Y104899D01*
X178014Y104313D01*
X178600Y103922D01*
X179291Y103784D01*
X190984D01*
X191675Y103922D01*
X192262Y104313D01*
X192653Y104899D01*
X192791Y105591D01*
X192653Y106282D01*
X192262Y106868D01*
X191675Y107259D01*
X190984Y107397D01*
D02*
G37*
G36*
X67768Y102747D02*
X67570Y102707D01*
X66979Y102312D01*
X66584Y101721D01*
X66545Y101524D01*
X67768D01*
Y102747D01*
D02*
G37*
G36*
X169776Y100739D02*
X169578Y100699D01*
X168987Y100304D01*
X168592Y99713D01*
X168553Y99516D01*
X169776D01*
Y100739D01*
D02*
G37*
G36*
X173689Y100699D02*
Y99476D01*
X174912D01*
X174873Y99674D01*
X174478Y100265D01*
X173886Y100660D01*
X173689Y100699D01*
D02*
G37*
G36*
X71366Y100581D02*
Y99358D01*
X72589D01*
X72550Y99556D01*
X72155Y100147D01*
X71564Y100542D01*
X71366Y100581D01*
D02*
G37*
G36*
X67768Y100524D02*
X66545D01*
X66584Y100326D01*
X66979Y99735D01*
X67570Y99340D01*
X67768Y99301D01*
Y100524D01*
D02*
G37*
G36*
X12000Y100464D02*
Y98020D01*
X14444D01*
X14407Y98299D01*
X14107Y99025D01*
X13628Y99648D01*
X13005Y100126D01*
X12279Y100427D01*
X12000Y100464D01*
D02*
G37*
G36*
X11000D02*
X10721Y100427D01*
X9995Y100126D01*
X9372Y99648D01*
X8893Y99025D01*
X8593Y98299D01*
X8556Y98020D01*
X11000D01*
Y100464D01*
D02*
G37*
G36*
X169776Y98516D02*
X168553D01*
X168592Y98318D01*
X168987Y97727D01*
X169578Y97332D01*
X169776Y97293D01*
Y98516D01*
D02*
G37*
G36*
X174912Y98476D02*
X173689D01*
Y97253D01*
X173886Y97293D01*
X174478Y97688D01*
X174873Y98279D01*
X174912Y98476D01*
D02*
G37*
G36*
X170776Y100739D02*
Y99016D01*
Y97293D01*
X170973Y97332D01*
X171564Y97727D01*
X172065Y97577D01*
X172492Y97293D01*
X172689Y97253D01*
Y98976D01*
Y100699D01*
X172492Y100660D01*
X171900Y100265D01*
X171399Y100415D01*
X170973Y100699D01*
X170776Y100739D01*
D02*
G37*
G36*
X72589Y98358D02*
X71366D01*
Y97135D01*
X71564Y97175D01*
X72155Y97570D01*
X72550Y98161D01*
X72589Y98358D01*
D02*
G37*
G36*
X68768Y102747D02*
Y101024D01*
Y99124D01*
X69044Y98858D01*
X69182Y98161D01*
X69577Y97570D01*
X70169Y97175D01*
X70366Y97135D01*
Y98858D01*
Y100758D01*
X70090Y101024D01*
X69951Y101721D01*
X69556Y102312D01*
X68965Y102707D01*
X68768Y102747D01*
D02*
G37*
G36*
X119476Y98337D02*
Y97114D01*
X120699D01*
X120660Y97312D01*
X120265Y97903D01*
X119674Y98298D01*
X119476Y98337D01*
D02*
G37*
G36*
X118476D02*
X118279Y98298D01*
X117688Y97903D01*
X117293Y97312D01*
X117253Y97114D01*
X118476D01*
Y98337D01*
D02*
G37*
G36*
X37272Y100291D02*
X31728D01*
Y94748D01*
X37272D01*
Y100291D01*
D02*
G37*
G36*
X14444Y97020D02*
X12000D01*
Y94576D01*
X12279Y94612D01*
X13005Y94913D01*
X13628Y95391D01*
X14107Y96015D01*
X14407Y96741D01*
X14444Y97020D01*
D02*
G37*
G36*
X11000D02*
X8556D01*
X8593Y96741D01*
X8893Y96015D01*
X9372Y95391D01*
X9995Y94913D01*
X10721Y94612D01*
X11000Y94576D01*
Y97020D01*
D02*
G37*
G36*
X120699Y96114D02*
X117253D01*
X117293Y95917D01*
X117688Y95325D01*
X117921Y95169D01*
Y94568D01*
X117727Y94438D01*
X117332Y93847D01*
X117293Y93650D01*
X120739D01*
X120700Y93847D01*
X120304Y94438D01*
X120071Y94594D01*
Y95196D01*
X120265Y95325D01*
X120660Y95917D01*
X120699Y96114D01*
D02*
G37*
G36*
X102705Y93534D02*
Y92311D01*
X103928D01*
X103888Y92508D01*
X103493Y93100D01*
X102902Y93495D01*
X102705Y93534D01*
D02*
G37*
G36*
X101705D02*
X101507Y93495D01*
X100916Y93100D01*
X100521Y92508D01*
X100482Y92311D01*
X101705D01*
Y93534D01*
D02*
G37*
G36*
X120739Y92650D02*
X119516D01*
Y91427D01*
X119713Y91466D01*
X120304Y91861D01*
X120700Y92452D01*
X120739Y92650D01*
D02*
G37*
G36*
X118516D02*
X117293D01*
X117332Y92452D01*
X117727Y91861D01*
X118318Y91466D01*
X118516Y91427D01*
Y92650D01*
D02*
G37*
G36*
X103928Y91311D02*
X100482D01*
X100521Y91114D01*
X100916Y90522D01*
Y90265D01*
X100521Y89674D01*
X100482Y89476D01*
X103928D01*
X103888Y89674D01*
X103493Y90265D01*
Y90522D01*
X103888Y91114D01*
X103928Y91311D01*
D02*
G37*
G36*
X154579Y89006D02*
X154381Y88967D01*
X154010Y88719D01*
X153533Y88533D01*
X152942Y88928D01*
X152744Y88967D01*
Y87244D01*
Y85521D01*
X152942Y85560D01*
X153313Y85809D01*
X153790Y85995D01*
X154381Y85600D01*
X154579Y85561D01*
Y87283D01*
Y89006D01*
D02*
G37*
G36*
X155579D02*
Y87783D01*
X156802D01*
X156762Y87981D01*
X156367Y88572D01*
X155776Y88967D01*
X155579Y89006D01*
D02*
G37*
G36*
X151744Y88967D02*
X151547Y88928D01*
X150955Y88533D01*
X150560Y87941D01*
X150521Y87744D01*
X151744D01*
Y88967D01*
D02*
G37*
G36*
X103928Y88476D02*
X102705D01*
Y87253D01*
X102902Y87293D01*
X103493Y87688D01*
X103888Y88279D01*
X103928Y88476D01*
D02*
G37*
G36*
X101705D02*
X100482D01*
X100521Y88279D01*
X100916Y87688D01*
X101507Y87293D01*
X101705Y87253D01*
Y88476D01*
D02*
G37*
G36*
X156802Y86783D02*
X155579D01*
Y85561D01*
X155776Y85600D01*
X156367Y85995D01*
X156762Y86586D01*
X156802Y86783D01*
D02*
G37*
G36*
X151744Y86744D02*
X150521D01*
X150560Y86547D01*
X150955Y85955D01*
X151547Y85560D01*
X151744Y85521D01*
Y86744D01*
D02*
G37*
G36*
X171957Y84833D02*
Y83610D01*
X173180D01*
X173140Y83808D01*
X172745Y84399D01*
X172154Y84794D01*
X171957Y84833D01*
D02*
G37*
G36*
X170957D02*
X170759Y84794D01*
X170168Y84399D01*
X169773Y83808D01*
X169734Y83610D01*
X170957D01*
Y84833D01*
D02*
G37*
G36*
X173180Y82610D02*
X169734D01*
X169773Y82413D01*
X170076Y81960D01*
X170207Y81446D01*
X169812Y80855D01*
X169773Y80658D01*
X173219D01*
X173180Y80855D01*
X172877Y81308D01*
X172745Y81822D01*
X173140Y82413D01*
X173180Y82610D01*
D02*
G37*
G36*
X173219Y79658D02*
X171996D01*
Y78434D01*
X172194Y78474D01*
X172785Y78869D01*
X173180Y79460D01*
X173219Y79658D01*
D02*
G37*
G36*
X170996D02*
X169773D01*
X169812Y79460D01*
X170207Y78869D01*
X170799Y78474D01*
X170996Y78434D01*
Y79658D01*
D02*
G37*
G36*
X113909Y79321D02*
X113712Y79282D01*
X113121Y78887D01*
X112726Y78296D01*
X112687Y78098D01*
X113909D01*
Y79321D01*
D02*
G37*
G36*
X148583Y112865D02*
X147968Y112743D01*
X147447Y112395D01*
X147099Y111874D01*
X146977Y111260D01*
X147099Y110645D01*
X147270Y110390D01*
Y88418D01*
X139726Y80874D01*
X139425Y80814D01*
X138904Y80466D01*
X138556Y79945D01*
X138434Y79331D01*
X138556Y78716D01*
X138904Y78195D01*
X139425Y77847D01*
X140039Y77725D01*
X140654Y77847D01*
X141175Y78195D01*
X141523Y78716D01*
X141583Y79018D01*
X149511Y86946D01*
X149795Y87372D01*
X149895Y87874D01*
Y110390D01*
X150066Y110645D01*
X150188Y111260D01*
X150066Y111874D01*
X149718Y112395D01*
X149197Y112743D01*
X148583Y112865D01*
D02*
G37*
G36*
X117744Y77983D02*
Y76760D01*
X118967D01*
X118928Y76957D01*
X118533Y77548D01*
X117941Y77943D01*
X117744Y77983D01*
D02*
G37*
G36*
X113909Y77098D02*
X112687D01*
X112726Y76901D01*
X113121Y76310D01*
X113712Y75915D01*
X113909Y75876D01*
Y77098D01*
D02*
G37*
G36*
X118967Y75760D02*
X117744D01*
Y74537D01*
X117941Y74576D01*
X118533Y74971D01*
X118928Y75562D01*
X118967Y75760D01*
D02*
G37*
G36*
X114909Y79321D02*
Y77598D01*
Y75876D01*
X115087Y75911D01*
X115534Y75695D01*
X115560Y75562D01*
X115955Y74971D01*
X116547Y74576D01*
X116744Y74537D01*
Y76260D01*
Y77983D01*
X116566Y77947D01*
X116120Y78164D01*
X116093Y78296D01*
X115698Y78887D01*
X115107Y79282D01*
X114909Y79321D01*
D02*
G37*
G36*
X39673Y64164D02*
Y62941D01*
X40896D01*
X40857Y63138D01*
X40462Y63730D01*
X39871Y64125D01*
X39673Y64164D01*
D02*
G37*
G36*
X38673D02*
X38476Y64125D01*
X37885Y63730D01*
X37490Y63138D01*
X37450Y62941D01*
X38673D01*
Y64164D01*
D02*
G37*
G36*
X112390Y63967D02*
Y62744D01*
X113613D01*
X113574Y62941D01*
X113178Y63533D01*
X112587Y63928D01*
X112390Y63967D01*
D02*
G37*
G36*
X111390D02*
X111192Y63928D01*
X110601Y63533D01*
X110206Y62941D01*
X110167Y62744D01*
X111390D01*
Y63967D01*
D02*
G37*
G36*
X40896Y61941D02*
X39673D01*
Y60718D01*
X39871Y60757D01*
X40462Y61152D01*
X40857Y61743D01*
X40896Y61941D01*
D02*
G37*
G36*
X38673D02*
X37450D01*
X37490Y61743D01*
X37885Y61152D01*
X38476Y60757D01*
X38673Y60718D01*
Y61941D01*
D02*
G37*
G36*
X113613Y61744D02*
X110167D01*
X110206Y61547D01*
X110601Y60955D01*
X110766Y60845D01*
Y60244D01*
X110562Y60108D01*
X110167Y59516D01*
X110127Y59319D01*
X113573D01*
X113534Y59516D01*
X113139Y60108D01*
X112974Y60218D01*
Y60819D01*
X113178Y60955D01*
X113574Y61547D01*
X113613Y61744D01*
D02*
G37*
G36*
X260130Y59991D02*
X259932Y59951D01*
X259341Y59556D01*
X258946Y58965D01*
X258907Y58768D01*
X260130D01*
Y59991D01*
D02*
G37*
G36*
X264988Y59951D02*
Y58728D01*
X266211D01*
X266172Y58926D01*
X265777Y59517D01*
X265186Y59912D01*
X264988Y59951D01*
D02*
G37*
G36*
X39595Y59597D02*
Y58374D01*
X40817D01*
X40778Y58571D01*
X40383Y59163D01*
X39792Y59558D01*
X39595Y59597D01*
D02*
G37*
G36*
X38594D02*
X38397Y59558D01*
X37806Y59163D01*
X37411Y58571D01*
X37372Y58374D01*
X38594D01*
Y59597D01*
D02*
G37*
G36*
X20634Y66154D02*
X12366D01*
Y57886D01*
X20634D01*
Y66154D01*
D02*
G37*
G36*
X113573Y58319D02*
X112350D01*
Y57096D01*
X112548Y57135D01*
X113139Y57530D01*
X113534Y58122D01*
X113573Y58319D01*
D02*
G37*
G36*
X111350D02*
X110127D01*
X110167Y58122D01*
X110562Y57530D01*
X111153Y57135D01*
X111350Y57096D01*
Y58319D01*
D02*
G37*
G36*
X170000Y60546D02*
X148071D01*
X147380Y60409D01*
X146794Y60017D01*
X146402Y59431D01*
X146265Y58740D01*
X146402Y58049D01*
X146794Y57463D01*
X147380Y57071D01*
X148071Y56934D01*
X170000D01*
X170691Y57071D01*
X171277Y57463D01*
X171669Y58049D01*
X171806Y58740D01*
X171669Y59431D01*
X171277Y60017D01*
X170691Y60409D01*
X170000Y60546D01*
D02*
G37*
G36*
X260130Y57768D02*
X258907D01*
X258946Y57570D01*
X259341Y56979D01*
X259932Y56584D01*
X260130Y56545D01*
Y57768D01*
D02*
G37*
G36*
X266211Y57728D02*
X264988D01*
Y56505D01*
X265186Y56545D01*
X265777Y56940D01*
X266172Y57531D01*
X266211Y57728D01*
D02*
G37*
G36*
X261130Y59991D02*
Y58268D01*
Y56545D01*
X261327Y56584D01*
X261919Y56979D01*
X262293Y57539D01*
X262453Y57559D01*
X262673Y57541D01*
X262813Y57518D01*
X263199Y56940D01*
X263791Y56545D01*
X263988Y56505D01*
Y58228D01*
Y59951D01*
X263791Y59912D01*
X263199Y59517D01*
X262825Y58957D01*
X262665Y58937D01*
X262444Y58955D01*
X262305Y58978D01*
X261919Y59556D01*
X261327Y59951D01*
X261130Y59991D01*
D02*
G37*
G36*
X40817Y57374D02*
X39595D01*
Y56151D01*
X39792Y56190D01*
X40383Y56585D01*
X40778Y57177D01*
X40817Y57374D01*
D02*
G37*
G36*
X38594D02*
X37372D01*
X37411Y57177D01*
X37806Y56585D01*
X38397Y56190D01*
X38594Y56151D01*
Y57374D01*
D02*
G37*
G36*
X202941Y51054D02*
Y49831D01*
X204164D01*
X204125Y50028D01*
X203730Y50619D01*
X203138Y51014D01*
X202941Y51054D01*
D02*
G37*
G36*
X201941D02*
X201744Y51014D01*
X201152Y50619D01*
X200757Y50028D01*
X200718Y49831D01*
X201941D01*
Y51054D01*
D02*
G37*
G36*
X147626Y49046D02*
Y47823D01*
X148849D01*
X148810Y48020D01*
X148415Y48612D01*
X147823Y49007D01*
X147626Y49046D01*
D02*
G37*
G36*
X146626D02*
X146429Y49007D01*
X145837Y48612D01*
X145442Y48020D01*
X145403Y47823D01*
X146626D01*
Y49046D01*
D02*
G37*
G36*
X204164Y48831D02*
X202941D01*
Y47608D01*
X203138Y47647D01*
X203730Y48042D01*
X204125Y48633D01*
X204164Y48831D01*
D02*
G37*
G36*
X201941D02*
X200718D01*
X200757Y48633D01*
X201152Y48042D01*
X201744Y47647D01*
X201941Y47608D01*
Y48831D01*
D02*
G37*
G36*
X17000Y51338D02*
Y47520D01*
X20818D01*
X20735Y48154D01*
X20297Y49212D01*
X19600Y50120D01*
X18692Y50816D01*
X17635Y51254D01*
X17000Y51338D01*
D02*
G37*
G36*
X16000D02*
X15365Y51254D01*
X14308Y50816D01*
X13400Y50120D01*
X12703Y49212D01*
X12265Y48154D01*
X12182Y47520D01*
X16000D01*
Y51338D01*
D02*
G37*
G36*
X136272Y46841D02*
X136074Y46802D01*
X135483Y46407D01*
X135088Y45816D01*
X135049Y45618D01*
X136272D01*
Y46841D01*
D02*
G37*
G36*
X141012Y46802D02*
Y45579D01*
X142235D01*
X142195Y45776D01*
X141800Y46367D01*
X141209Y46762D01*
X141012Y46802D01*
D02*
G37*
G36*
X148849Y46823D02*
X145403D01*
X145442Y46625D01*
X145837Y46034D01*
Y45816D01*
X145442Y45225D01*
X145403Y45028D01*
X148849D01*
X148810Y45225D01*
X148415Y45816D01*
Y46034D01*
X148810Y46625D01*
X148849Y46823D01*
D02*
G37*
G36*
X202862Y45660D02*
Y44437D01*
X204085D01*
X204046Y44634D01*
X203651Y45226D01*
X203060Y45621D01*
X202862Y45660D01*
D02*
G37*
G36*
X201862D02*
X201665Y45621D01*
X201074Y45226D01*
X200678Y44634D01*
X200639Y44437D01*
X201862D01*
Y45660D01*
D02*
G37*
G36*
X136272Y44618D02*
X135049D01*
X135088Y44421D01*
X135483Y43830D01*
X136074Y43434D01*
X136272Y43395D01*
Y44618D01*
D02*
G37*
G36*
X142235Y44579D02*
X141012D01*
Y43356D01*
X141209Y43395D01*
X141800Y43790D01*
X142195Y44381D01*
X142235Y44579D01*
D02*
G37*
G36*
X137272Y46841D02*
Y45118D01*
Y43395D01*
X137469Y43434D01*
X138060Y43830D01*
X138351Y44264D01*
X138473Y44294D01*
X138865Y44278D01*
X138906Y44264D01*
X139223Y43790D01*
X139814Y43395D01*
X140012Y43356D01*
Y45079D01*
Y46802D01*
X139814Y46762D01*
X139223Y46367D01*
X138933Y45933D01*
X138810Y45902D01*
X138418Y45919D01*
X138377Y45933D01*
X138060Y46407D01*
X137469Y46802D01*
X137272Y46841D01*
D02*
G37*
G36*
X176457Y69362D02*
X175842Y69239D01*
X175321Y68891D01*
X174973Y68370D01*
X174851Y67756D01*
X174973Y67141D01*
X175144Y66886D01*
Y45713D01*
X174973Y45457D01*
X174851Y44842D01*
X174973Y44228D01*
X175321Y43707D01*
X175842Y43359D01*
X176457Y43237D01*
X177071Y43359D01*
X177592Y43707D01*
X177940Y44228D01*
X178062Y44842D01*
X177940Y45457D01*
X177769Y45713D01*
Y66886D01*
X177940Y67141D01*
X178062Y67756D01*
X177940Y68370D01*
X177592Y68891D01*
X177071Y69239D01*
X176457Y69362D01*
D02*
G37*
G36*
X148849Y44028D02*
X147626D01*
Y42805D01*
X147823Y42844D01*
X148415Y43239D01*
X148810Y43830D01*
X148849Y44028D01*
D02*
G37*
G36*
X146626D02*
X145403D01*
X145442Y43830D01*
X145837Y43239D01*
X146429Y42844D01*
X146626Y42805D01*
Y44028D01*
D02*
G37*
G36*
X20818Y46520D02*
X17000D01*
Y42702D01*
X17635Y42785D01*
X18692Y43223D01*
X19600Y43920D01*
X20297Y44828D01*
X20735Y45885D01*
X20818Y46520D01*
D02*
G37*
G36*
X16000D02*
X12182D01*
X12265Y45885D01*
X12703Y44828D01*
X13400Y43920D01*
X14308Y43223D01*
X15365Y42785D01*
X16000Y42702D01*
Y46520D01*
D02*
G37*
G36*
X204085Y43437D02*
X202862D01*
Y42214D01*
X203060Y42253D01*
X203651Y42648D01*
X204046Y43240D01*
X204085Y43437D01*
D02*
G37*
G36*
X201862D02*
X200639D01*
X200678Y43240D01*
X201074Y42648D01*
X201665Y42253D01*
X201862Y42214D01*
Y43437D01*
D02*
G37*
G36*
X167925Y42983D02*
X167728Y42944D01*
X167137Y42548D01*
X166742Y41957D01*
X166702Y41760D01*
X167925D01*
Y42983D01*
D02*
G37*
G36*
X172035Y42904D02*
Y41681D01*
X173258D01*
X173219Y41879D01*
X172824Y42470D01*
X172233Y42865D01*
X172035Y42904D01*
D02*
G37*
G36*
X167925Y40760D02*
X166702D01*
X166742Y40562D01*
X167137Y39971D01*
X167728Y39576D01*
X167925Y39537D01*
Y40760D01*
D02*
G37*
G36*
X173258Y40681D02*
X172035D01*
Y39458D01*
X172233Y39497D01*
X172824Y39893D01*
X173219Y40484D01*
X173258Y40681D01*
D02*
G37*
G36*
X168925Y42983D02*
Y41260D01*
Y39537D01*
X169123Y39576D01*
X169714Y39971D01*
X170194D01*
X170247Y39893D01*
X170838Y39497D01*
X171035Y39458D01*
Y41181D01*
Y42904D01*
X170838Y42865D01*
X170247Y42470D01*
X169766D01*
X169714Y42548D01*
X169123Y42944D01*
X168925Y42983D01*
D02*
G37*
G36*
X254842Y41015D02*
X254228Y40893D01*
X253972Y40722D01*
X246535D01*
X246033Y40622D01*
X245607Y40338D01*
X241223Y35953D01*
X240921Y35893D01*
X240400Y35545D01*
X240052Y35024D01*
X239930Y34409D01*
X240052Y33795D01*
X240400Y33274D01*
X240921Y32926D01*
X241535Y32804D01*
X242150Y32926D01*
X242671Y33274D01*
X243019Y33795D01*
X243079Y34097D01*
X247079Y38097D01*
X253972D01*
X254228Y37926D01*
X254842Y37804D01*
X255457Y37926D01*
X255978Y38274D01*
X256326Y38795D01*
X256448Y39409D01*
X256326Y40024D01*
X255978Y40545D01*
X255457Y40893D01*
X254842Y41015D01*
D02*
G37*
G36*
X126394Y37894D02*
X120850D01*
Y32350D01*
X126394D01*
Y37894D01*
D02*
G37*
G36*
X182126Y27432D02*
X181511Y27310D01*
X181256Y27139D01*
X173350D01*
X173095Y27310D01*
X172480Y27432D01*
X171866Y27310D01*
X171345Y26962D01*
X170997Y26441D01*
X170875Y25827D01*
X170997Y25212D01*
X171345Y24691D01*
X171866Y24343D01*
X172480Y24221D01*
X173095Y24343D01*
X173350Y24514D01*
X181256D01*
X181511Y24343D01*
X182126Y24221D01*
X182740Y24343D01*
X183261Y24691D01*
X183609Y25212D01*
X183732Y25827D01*
X183609Y26441D01*
X183261Y26962D01*
X182740Y27310D01*
X182126Y27432D01*
D02*
G37*
G36*
X217862Y21880D02*
Y20658D01*
X219085D01*
X219046Y20855D01*
X218651Y21446D01*
X218060Y21841D01*
X217862Y21880D01*
D02*
G37*
G36*
X216862D02*
X216665Y21841D01*
X216073Y21446D01*
X215679Y20855D01*
X215639Y20658D01*
X216862D01*
Y21880D01*
D02*
G37*
G36*
X252862Y35058D02*
Y18807D01*
X269113D01*
X269003Y20498D01*
X268574Y22651D01*
X267869Y24730D01*
X266898Y26699D01*
X265678Y28525D01*
X264230Y30175D01*
X262580Y31623D01*
X260754Y32842D01*
X258785Y33814D01*
X256706Y34519D01*
X254553Y34947D01*
X252862Y35058D01*
D02*
G37*
G36*
X251862D02*
X250171Y34947D01*
X248018Y34519D01*
X245939Y33814D01*
X243970Y32842D01*
X242145Y31623D01*
X240494Y30175D01*
X239047Y28525D01*
X237827Y26699D01*
X236856Y24730D01*
X236150Y22651D01*
X235722Y20498D01*
X235611Y18807D01*
X251862D01*
Y35058D01*
D02*
G37*
G36*
X19000Y34984D02*
Y18732D01*
X35251D01*
X35140Y20423D01*
X34712Y22576D01*
X34006Y24655D01*
X33035Y26624D01*
X31816Y28450D01*
X30368Y30100D01*
X28717Y31548D01*
X26892Y32768D01*
X24923Y33739D01*
X22844Y34444D01*
X20691Y34873D01*
X19000Y34984D01*
D02*
G37*
G36*
X18000D02*
X16309Y34873D01*
X14156Y34444D01*
X12077Y33739D01*
X10108Y32768D01*
X8283Y31548D01*
X6632Y30100D01*
X5184Y28450D01*
X3965Y26624D01*
X2994Y24655D01*
X2288Y22576D01*
X1860Y20423D01*
X1749Y18732D01*
X18000D01*
Y34984D01*
D02*
G37*
G36*
X219085Y19658D02*
X215639D01*
X215679Y19460D01*
X216073Y18869D01*
X216229Y18765D01*
Y18164D01*
X216073Y18060D01*
X215679Y17469D01*
X215639Y17272D01*
X219085D01*
X219046Y17469D01*
X218651Y18060D01*
X218496Y18164D01*
Y18765D01*
X218651Y18869D01*
X219046Y19460D01*
X219085Y19658D01*
D02*
G37*
G36*
Y16272D02*
X217862D01*
Y15049D01*
X218060Y15088D01*
X218651Y15483D01*
X219046Y16074D01*
X219085Y16272D01*
D02*
G37*
G36*
X216862D02*
X215639D01*
X215679Y16074D01*
X216073Y15483D01*
X216665Y15088D01*
X216862Y15049D01*
Y16272D01*
D02*
G37*
G36*
X124122Y15066D02*
Y12622D01*
X126566D01*
X126530Y12901D01*
X126229Y13627D01*
X125750Y14250D01*
X125127Y14729D01*
X124401Y15030D01*
X124122Y15066D01*
D02*
G37*
G36*
X123122Y15066D02*
X122843Y15030D01*
X122117Y14729D01*
X121494Y14250D01*
X121015Y13627D01*
X120715Y12901D01*
X120678Y12622D01*
X123122D01*
Y15066D01*
D02*
G37*
G36*
X163287Y19783D02*
X155217D01*
Y11713D01*
X163287D01*
Y19783D01*
D02*
G37*
G36*
X169095Y19818D02*
X168041Y19680D01*
X167059Y19273D01*
X166216Y18626D01*
X165570Y17783D01*
X165163Y16802D01*
X165024Y15748D01*
X165163Y14695D01*
X165570Y13713D01*
X166216Y12870D01*
X167059Y12223D01*
X168041Y11817D01*
X169095Y11678D01*
X170148Y11817D01*
X171130Y12223D01*
X171973Y12870D01*
X172619Y13713D01*
X173026Y14695D01*
X173165Y15748D01*
X173026Y16802D01*
X172619Y17783D01*
X171973Y18626D01*
X171130Y19273D01*
X170148Y19680D01*
X169095Y19818D01*
D02*
G37*
G36*
X123122Y11622D02*
X120678D01*
X120715Y11343D01*
X121015Y10617D01*
X121494Y9994D01*
X122117Y9515D01*
X122843Y9215D01*
X123122Y9178D01*
Y11622D01*
D02*
G37*
G36*
X126566D02*
X124122D01*
Y9178D01*
X124401Y9215D01*
X125127Y9515D01*
X125750Y9994D01*
X126229Y10617D01*
X126530Y11343D01*
X126566Y11622D01*
D02*
G37*
G36*
X269113Y17807D02*
X252862D01*
Y1556D01*
X254553Y1667D01*
X256706Y2095D01*
X258785Y2801D01*
X260754Y3772D01*
X262580Y4992D01*
X264230Y6439D01*
X265678Y8090D01*
X266898Y9915D01*
X267869Y11884D01*
X268574Y13963D01*
X269003Y16116D01*
X269113Y17807D01*
D02*
G37*
G36*
X251862D02*
X235611D01*
X235722Y16116D01*
X236150Y13963D01*
X236856Y11884D01*
X237827Y9915D01*
X239047Y8090D01*
X240494Y6439D01*
X242145Y4992D01*
X243970Y3772D01*
X245939Y2801D01*
X248018Y2095D01*
X250171Y1667D01*
X251862Y1556D01*
Y17807D01*
D02*
G37*
G36*
X35251Y17732D02*
X19000D01*
Y1481D01*
X20691Y1592D01*
X22844Y2020D01*
X24923Y2726D01*
X26892Y3697D01*
X28717Y4917D01*
X30368Y6364D01*
X31816Y8015D01*
X33035Y9840D01*
X34006Y11809D01*
X34712Y13888D01*
X35140Y16041D01*
X35251Y17732D01*
D02*
G37*
G36*
X18000D02*
X1749D01*
X1860Y16041D01*
X2288Y13888D01*
X2994Y11809D01*
X3965Y9840D01*
X5184Y8015D01*
X6632Y6364D01*
X8283Y4917D01*
X10108Y3697D01*
X12077Y2726D01*
X14156Y2020D01*
X16309Y1592D01*
X18000Y1481D01*
Y17732D01*
D02*
G37*
%LPD*%
D70*
X246535Y39409D02*
X254842D01*
X241535Y34409D02*
X246535Y39409D01*
X231181Y115709D02*
Y121181D01*
X172480Y25827D02*
X182126D01*
X176457Y44842D02*
Y67756D01*
X140039Y79331D02*
X148583Y87874D01*
Y111260D01*
D72*
X179291Y105591D02*
X190984D01*
X167480Y144882D02*
X176535Y135827D01*
X148071Y58740D02*
X170000D01*
D76*
X167480Y144882D02*
D03*
X159252Y15748D02*
D03*
D77*
X157480Y144882D02*
D03*
X147480D02*
D03*
X169095Y15748D02*
D03*
D78*
X11500Y97520D02*
D03*
X123622Y12122D02*
D03*
D79*
X34500Y97520D02*
D03*
D80*
X123622Y35122D02*
D03*
D81*
X185472Y145866D02*
D03*
X195472D02*
D03*
X205472D02*
D03*
D82*
X215472D02*
D03*
D83*
X252362Y18307D02*
D03*
X18500Y139020D02*
D03*
Y18232D02*
D03*
X252480Y139173D02*
D03*
D84*
X126181Y129331D02*
D03*
X106968D02*
D03*
D85*
X16500Y47020D02*
D03*
D86*
Y62020D02*
D03*
D87*
X171535Y41181D02*
D03*
X168425Y41260D02*
D03*
X190984Y105591D02*
D03*
X179291D02*
D03*
X231181Y115709D02*
D03*
X217362Y16772D02*
D03*
Y20157D02*
D03*
X173189Y98976D02*
D03*
X170276Y99016D02*
D03*
X171496Y80158D02*
D03*
X171457Y83110D02*
D03*
X155079Y87283D02*
D03*
X152244Y87244D02*
D03*
X153740Y112480D02*
D03*
X153701Y115394D02*
D03*
X226102Y130945D02*
D03*
X221693Y126339D02*
D03*
X227913Y145945D02*
D03*
X231653Y146024D02*
D03*
X183858Y130551D02*
D03*
X180354Y130630D02*
D03*
X168465Y135787D02*
D03*
X165079D02*
D03*
X135394Y140669D02*
D03*
X132205Y140709D02*
D03*
X101024Y144882D02*
D03*
Y148740D02*
D03*
X102205Y88976D02*
D03*
Y91811D02*
D03*
X119016Y93150D02*
D03*
X118976Y96614D02*
D03*
X111102Y107677D02*
D03*
X111063Y111693D02*
D03*
X150669Y130315D02*
D03*
Y133622D02*
D03*
X176535Y135827D02*
D03*
X39094Y57874D02*
D03*
X39173Y62441D02*
D03*
X202362Y43937D02*
D03*
X202441Y49331D02*
D03*
X264488Y58228D02*
D03*
X260630Y58268D02*
D03*
X261024Y116614D02*
D03*
X255669Y116654D02*
D03*
X117244Y76260D02*
D03*
X114409Y77598D02*
D03*
X111850Y58819D02*
D03*
X111890Y62244D02*
D03*
X140512Y45079D02*
D03*
X136772Y45118D02*
D03*
X176457Y44842D02*
D03*
X147126Y44528D02*
D03*
Y47323D02*
D03*
X241535Y34409D02*
D03*
X254842Y39409D02*
D03*
X87559Y150709D02*
D03*
X82047Y150748D02*
D03*
X76181Y150827D02*
D03*
X70197D02*
D03*
X64803D02*
D03*
X58583D02*
D03*
X52244Y150748D02*
D03*
X70866Y98858D02*
D03*
X68268Y101024D02*
D03*
X170000Y58740D02*
D03*
X148071D02*
D03*
X182126Y25827D02*
D03*
X172480D02*
D03*
X176457Y67756D02*
D03*
X231181Y121181D02*
D03*
X140039Y79331D02*
D03*
X148583Y111260D02*
D03*
M02*
